<mxfile host="app.diagrams.net" modified="2022-05-12T08:44:58.861Z" agent="5.0 (Windows NT 10.0; Win64; x64) AppleWebKit/537.36 (KHTML, like Gecko) Chrome/100.0.4896.127 Safari/537.36" etag="1a3DpG68wEUGOGo2nGKB" version="18.0.0" type="github">
  <diagram id="8CRPlhkvrAZ520oBxh4C" name="CSC4001Project">
    <mxGraphModel dx="5881" dy="3674" grid="0" gridSize="10" guides="1" tooltips="1" connect="1" arrows="1" fold="1" page="1" pageScale="1" pageWidth="850" pageHeight="1100" math="0" shadow="0">
      <root>
        <mxCell id="0" />
        <mxCell id="1" parent="0" />
        <mxCell id="xDkKRqTIg5tSnUdjJHh7-73" value="Actor" style="shape=umlActor;verticalLabelPosition=bottom;verticalAlign=top;html=1;outlineConnect=0;fillColor=default;" parent="1" vertex="1">
          <mxGeometry x="-4030" y="1280" width="30" height="60" as="geometry" />
        </mxCell>
        <mxCell id="xDkKRqTIg5tSnUdjJHh7-72" value="Actor" style="shape=umlActor;verticalLabelPosition=bottom;verticalAlign=top;html=1;outlineConnect=0;fillColor=default;" parent="1" vertex="1">
          <mxGeometry x="-4462" y="1280" width="30" height="60" as="geometry" />
        </mxCell>
        <mxCell id="V3cPVhSnnp--JwQB0Sp9-1" value="" style="rounded=0;whiteSpace=wrap;html=1;" parent="1" vertex="1">
          <mxGeometry x="-4928" y="180" width="473" height="698" as="geometry" />
        </mxCell>
        <mxCell id="V3cPVhSnnp--JwQB0Sp9-2" value="Actor" style="shape=umlActor;verticalLabelPosition=bottom;verticalAlign=top;html=1;" parent="1" vertex="1">
          <mxGeometry x="-5027" y="467.5" width="30" height="60" as="geometry" />
        </mxCell>
        <mxCell id="V3cPVhSnnp--JwQB0Sp9-3" value="&amp;lt;&amp;lt;include&amp;gt;&amp;gt;" style="html=1;verticalAlign=bottom;labelBackgroundColor=none;endArrow=open;endFill=0;dashed=1;rounded=0;entryX=0;entryY=0;entryDx=0;entryDy=0;exitX=1;exitY=0.5;exitDx=0;exitDy=0;" parent="1" source="V3cPVhSnnp--JwQB0Sp9-21" target="V3cPVhSnnp--JwQB0Sp9-26" edge="1">
          <mxGeometry width="160" relative="1" as="geometry">
            <mxPoint x="-4634" y="611" as="sourcePoint" />
            <mxPoint x="-4548" y="611" as="targetPoint" />
          </mxGeometry>
        </mxCell>
        <mxCell id="V3cPVhSnnp--JwQB0Sp9-4" value="&amp;lt;&amp;lt;extend&amp;gt;&amp;gt;" style="html=1;verticalAlign=bottom;labelBackgroundColor=none;endArrow=open;endFill=0;dashed=1;rounded=0;exitX=0.5;exitY=1;exitDx=0;exitDy=0;entryX=0.5;entryY=0;entryDx=0;entryDy=0;" parent="1" source="V3cPVhSnnp--JwQB0Sp9-26" target="V3cPVhSnnp--JwQB0Sp9-28" edge="1">
          <mxGeometry width="160" relative="1" as="geometry">
            <mxPoint x="-4794" y="946" as="sourcePoint" />
            <mxPoint x="-4634" y="946" as="targetPoint" />
          </mxGeometry>
        </mxCell>
        <mxCell id="V3cPVhSnnp--JwQB0Sp9-5" value="Actor" style="shape=umlActor;verticalLabelPosition=bottom;verticalAlign=top;html=1;" parent="1" vertex="1">
          <mxGeometry x="-4343" y="338.75" width="30" height="60.5" as="geometry" />
        </mxCell>
        <mxCell id="V3cPVhSnnp--JwQB0Sp9-6" value="Login" style="ellipse;whiteSpace=wrap;html=1;" parent="1" vertex="1">
          <mxGeometry x="-4882" y="198" width="127" height="45" as="geometry" />
        </mxCell>
        <mxCell id="V3cPVhSnnp--JwQB0Sp9-7" value="Manage Users" style="ellipse;whiteSpace=wrap;html=1;" parent="1" vertex="1">
          <mxGeometry x="-4882" y="249" width="127" height="45" as="geometry" />
        </mxCell>
        <mxCell id="V3cPVhSnnp--JwQB0Sp9-8" value="Add Users" style="ellipse;whiteSpace=wrap;html=1;" parent="1" vertex="1">
          <mxGeometry x="-4645" y="298" width="127" height="45" as="geometry" />
        </mxCell>
        <mxCell id="V3cPVhSnnp--JwQB0Sp9-9" value="Delete Users" style="ellipse;whiteSpace=wrap;html=1;" parent="1" vertex="1">
          <mxGeometry x="-4645" y="246" width="127" height="45" as="geometry" />
        </mxCell>
        <mxCell id="V3cPVhSnnp--JwQB0Sp9-10" value="Search Users" style="ellipse;whiteSpace=wrap;html=1;" parent="1" vertex="1">
          <mxGeometry x="-4645" y="194" width="127" height="45" as="geometry" />
        </mxCell>
        <mxCell id="V3cPVhSnnp--JwQB0Sp9-11" value="Manipulate Folders" style="ellipse;whiteSpace=wrap;html=1;" parent="1" vertex="1">
          <mxGeometry x="-4764" y="431.5" width="127" height="45" as="geometry" />
        </mxCell>
        <mxCell id="V3cPVhSnnp--JwQB0Sp9-12" value="Create Mind Map" style="ellipse;whiteSpace=wrap;html=1;" parent="1" vertex="1">
          <mxGeometry x="-4916" y="622.5" width="127" height="45" as="geometry" />
        </mxCell>
        <mxCell id="V3cPVhSnnp--JwQB0Sp9-13" value="Log out" style="ellipse;whiteSpace=wrap;html=1;" parent="1" vertex="1">
          <mxGeometry x="-4878" y="818" width="127" height="45" as="geometry" />
        </mxCell>
        <mxCell id="V3cPVhSnnp--JwQB0Sp9-14" value="Create Folders" style="ellipse;whiteSpace=wrap;html=1;" parent="1" vertex="1">
          <mxGeometry x="-4913" y="475" width="127" height="45" as="geometry" />
        </mxCell>
        <mxCell id="V3cPVhSnnp--JwQB0Sp9-15" value="Access Folders" style="ellipse;whiteSpace=wrap;html=1;" parent="1" vertex="1">
          <mxGeometry x="-4826" y="522" width="127" height="45" as="geometry" />
        </mxCell>
        <mxCell id="V3cPVhSnnp--JwQB0Sp9-16" value="Update Folders" style="ellipse;whiteSpace=wrap;html=1;" parent="1" vertex="1">
          <mxGeometry x="-4692" y="522" width="127" height="45" as="geometry" />
        </mxCell>
        <mxCell id="V3cPVhSnnp--JwQB0Sp9-17" value="Delete Folders" style="ellipse;whiteSpace=wrap;html=1;" parent="1" vertex="1">
          <mxGeometry x="-4613" y="475" width="127" height="45" as="geometry" />
        </mxCell>
        <mxCell id="V3cPVhSnnp--JwQB0Sp9-18" value="Authorize Users" style="ellipse;whiteSpace=wrap;html=1;" parent="1" vertex="1">
          <mxGeometry x="-4744" y="377" width="127" height="45" as="geometry" />
        </mxCell>
        <mxCell id="V3cPVhSnnp--JwQB0Sp9-19" value="Deauthorize Users" style="ellipse;whiteSpace=wrap;html=1;" parent="1" vertex="1">
          <mxGeometry x="-4613" y="377" width="127" height="45" as="geometry" />
        </mxCell>
        <mxCell id="V3cPVhSnnp--JwQB0Sp9-20" value="Format Transform" style="ellipse;whiteSpace=wrap;html=1;" parent="1" vertex="1">
          <mxGeometry x="-4907" y="339" width="127" height="45" as="geometry" />
        </mxCell>
        <mxCell id="V3cPVhSnnp--JwQB0Sp9-21" value="Manipulate Mind Map" style="ellipse;whiteSpace=wrap;html=1;" parent="1" vertex="1">
          <mxGeometry x="-4761" y="583" width="127" height="45" as="geometry" />
        </mxCell>
        <mxCell id="V3cPVhSnnp--JwQB0Sp9-22" value="Access Mind Map" style="ellipse;whiteSpace=wrap;html=1;" parent="1" vertex="1">
          <mxGeometry x="-4888" y="673.5" width="127" height="45" as="geometry" />
        </mxCell>
        <mxCell id="V3cPVhSnnp--JwQB0Sp9-23" value="Delete Mind Map" style="ellipse;whiteSpace=wrap;html=1;" parent="1" vertex="1">
          <mxGeometry x="-4851" y="726" width="127" height="45" as="geometry" />
        </mxCell>
        <mxCell id="V3cPVhSnnp--JwQB0Sp9-24" value="Manipulate Nodes" style="ellipse;whiteSpace=wrap;html=1;" parent="1" vertex="1">
          <mxGeometry x="-4719" y="725" width="127" height="45" as="geometry" />
        </mxCell>
        <mxCell id="V3cPVhSnnp--JwQB0Sp9-25" value="Manipulate Branches" style="ellipse;whiteSpace=wrap;html=1;" parent="1" vertex="1">
          <mxGeometry x="-4669" y="673.5" width="127" height="45" as="geometry" />
        </mxCell>
        <mxCell id="V3cPVhSnnp--JwQB0Sp9-26" value="Update Mind Map" style="ellipse;whiteSpace=wrap;html=1;" parent="1" vertex="1">
          <mxGeometry x="-4592" y="622.5" width="127" height="45" as="geometry" />
        </mxCell>
        <mxCell id="V3cPVhSnnp--JwQB0Sp9-27" value="Log out" style="ellipse;whiteSpace=wrap;html=1;" parent="1" vertex="1">
          <mxGeometry x="-4724" y="818" width="127" height="45" as="geometry" />
        </mxCell>
        <mxCell id="V3cPVhSnnp--JwQB0Sp9-28" value="Manipulate Files" style="ellipse;whiteSpace=wrap;html=1;" parent="1" vertex="1">
          <mxGeometry x="-4587" y="725" width="127" height="45" as="geometry" />
        </mxCell>
        <mxCell id="V3cPVhSnnp--JwQB0Sp9-29" value="Attach Files" style="ellipse;whiteSpace=wrap;html=1;" parent="1" vertex="1">
          <mxGeometry x="-4724" y="818" width="127" height="45" as="geometry" />
        </mxCell>
        <mxCell id="V3cPVhSnnp--JwQB0Sp9-30" value="Delete Files" style="ellipse;whiteSpace=wrap;html=1;" parent="1" vertex="1">
          <mxGeometry x="-4589" y="818" width="127" height="45" as="geometry" />
        </mxCell>
        <mxCell id="V3cPVhSnnp--JwQB0Sp9-31" style="edgeStyle=orthogonalEdgeStyle;rounded=0;orthogonalLoop=1;jettySize=auto;html=1;exitX=0.5;exitY=0;exitDx=0;exitDy=0;exitPerimeter=0;entryX=0.5;entryY=1;entryDx=0;entryDy=0;shadow=0;strokeWidth=2;opacity=20;" parent="1" source="V3cPVhSnnp--JwQB0Sp9-32" target="V3cPVhSnnp--JwQB0Sp9-60" edge="1">
          <mxGeometry relative="1" as="geometry" />
        </mxCell>
        <mxCell id="V3cPVhSnnp--JwQB0Sp9-32" value="Actor" style="shape=umlActor;verticalLabelPosition=bottom;verticalAlign=top;html=1;" parent="1" vertex="1">
          <mxGeometry x="-4343" y="520" width="30" height="60" as="geometry" />
        </mxCell>
        <mxCell id="V3cPVhSnnp--JwQB0Sp9-33" value="&amp;lt;&amp;lt;include&amp;gt;&amp;gt;" style="html=1;verticalAlign=bottom;labelBackgroundColor=none;endArrow=open;endFill=0;dashed=1;rounded=0;exitX=0;exitY=0.5;exitDx=0;exitDy=0;entryX=1;entryY=0;entryDx=0;entryDy=0;" parent="1" source="V3cPVhSnnp--JwQB0Sp9-21" target="V3cPVhSnnp--JwQB0Sp9-12" edge="1">
          <mxGeometry x="0.7416" y="-13" width="160" relative="1" as="geometry">
            <mxPoint x="-4874" y="796" as="sourcePoint" />
            <mxPoint x="-4714" y="796" as="targetPoint" />
            <mxPoint y="1" as="offset" />
          </mxGeometry>
        </mxCell>
        <mxCell id="V3cPVhSnnp--JwQB0Sp9-34" value="&amp;lt;&amp;lt;include&amp;gt;&amp;gt;" style="html=1;verticalAlign=bottom;labelBackgroundColor=none;endArrow=open;endFill=0;dashed=1;rounded=0;exitX=0;exitY=1;exitDx=0;exitDy=0;entryX=1;entryY=0;entryDx=0;entryDy=0;" parent="1" source="V3cPVhSnnp--JwQB0Sp9-21" target="V3cPVhSnnp--JwQB0Sp9-22" edge="1">
          <mxGeometry width="160" relative="1" as="geometry">
            <mxPoint x="-4751" y="615.5" as="sourcePoint" />
            <mxPoint x="-4796.740425436825" y="639.4001450352812" as="targetPoint" />
          </mxGeometry>
        </mxCell>
        <mxCell id="V3cPVhSnnp--JwQB0Sp9-35" value="&amp;lt;&amp;lt;include&amp;gt;&amp;gt;" style="html=1;verticalAlign=bottom;labelBackgroundColor=none;endArrow=open;endFill=0;dashed=1;rounded=0;exitX=0.5;exitY=1;exitDx=0;exitDy=0;entryX=0.5;entryY=0;entryDx=0;entryDy=0;" parent="1" source="V3cPVhSnnp--JwQB0Sp9-21" target="V3cPVhSnnp--JwQB0Sp9-23" edge="1">
          <mxGeometry width="160" relative="1" as="geometry">
            <mxPoint x="-4733.259574563177" y="631.0998549647193" as="sourcePoint" />
            <mxPoint x="-4768.740425436821" y="690.4001450352803" as="targetPoint" />
          </mxGeometry>
        </mxCell>
        <mxCell id="V3cPVhSnnp--JwQB0Sp9-36" value="&amp;lt;&amp;lt;include&amp;gt;&amp;gt;" style="html=1;verticalAlign=bottom;labelBackgroundColor=none;endArrow=open;endFill=0;dashed=1;rounded=0;exitX=0.5;exitY=1;exitDx=0;exitDy=0;entryX=0;entryY=0;entryDx=0;entryDy=0;" parent="1" source="V3cPVhSnnp--JwQB0Sp9-21" target="V3cPVhSnnp--JwQB0Sp9-24" edge="1">
          <mxGeometry x="0.2775" y="-10" width="160" relative="1" as="geometry">
            <mxPoint x="-4687.5" y="638" as="sourcePoint" />
            <mxPoint x="-4777.5" y="736" as="targetPoint" />
            <mxPoint y="1" as="offset" />
          </mxGeometry>
        </mxCell>
        <mxCell id="V3cPVhSnnp--JwQB0Sp9-37" value="&amp;lt;&amp;lt;include&amp;gt;&amp;gt;" style="html=1;verticalAlign=bottom;labelBackgroundColor=none;endArrow=open;endFill=0;dashed=1;rounded=0;exitX=1;exitY=1;exitDx=0;exitDy=0;entryX=0;entryY=0;entryDx=0;entryDy=0;" parent="1" source="V3cPVhSnnp--JwQB0Sp9-21" target="V3cPVhSnnp--JwQB0Sp9-25" edge="1">
          <mxGeometry width="160" relative="1" as="geometry">
            <mxPoint x="-4687.5" y="638" as="sourcePoint" />
            <mxPoint x="-4691.259574563177" y="741.9001450352807" as="targetPoint" />
          </mxGeometry>
        </mxCell>
        <mxCell id="V3cPVhSnnp--JwQB0Sp9-38" value="&amp;lt;&amp;lt;include&amp;gt;&amp;gt;" style="html=1;verticalAlign=bottom;labelBackgroundColor=none;endArrow=open;endFill=0;dashed=1;rounded=0;exitX=0;exitY=1;exitDx=0;exitDy=0;entryX=0.5;entryY=0;entryDx=0;entryDy=0;" parent="1" source="V3cPVhSnnp--JwQB0Sp9-28" target="V3cPVhSnnp--JwQB0Sp9-29" edge="1">
          <mxGeometry x="0.2775" y="-10" width="160" relative="1" as="geometry">
            <mxPoint x="-4687.5" y="638" as="sourcePoint" />
            <mxPoint x="-4691.259574563177" y="741.9001450352807" as="targetPoint" />
            <mxPoint y="1" as="offset" />
          </mxGeometry>
        </mxCell>
        <mxCell id="V3cPVhSnnp--JwQB0Sp9-39" value="&amp;lt;&amp;lt;include&amp;gt;&amp;gt;" style="html=1;verticalAlign=bottom;labelBackgroundColor=none;endArrow=open;endFill=0;dashed=1;rounded=0;exitX=0.5;exitY=1;exitDx=0;exitDy=0;entryX=0.5;entryY=0;entryDx=0;entryDy=0;" parent="1" source="V3cPVhSnnp--JwQB0Sp9-28" target="V3cPVhSnnp--JwQB0Sp9-30" edge="1">
          <mxGeometry x="0.2775" y="-10" width="160" relative="1" as="geometry">
            <mxPoint x="-4559.25957456318" y="773.0998549647206" as="sourcePoint" />
            <mxPoint x="-4650.5" y="828" as="targetPoint" />
            <mxPoint y="1" as="offset" />
          </mxGeometry>
        </mxCell>
        <mxCell id="V3cPVhSnnp--JwQB0Sp9-40" value="&amp;lt;&amp;lt;include&amp;gt;&amp;gt;" style="html=1;verticalAlign=bottom;labelBackgroundColor=none;endArrow=open;endFill=0;dashed=1;rounded=0;exitX=1;exitY=0.5;exitDx=0;exitDy=0;entryX=0;entryY=0.5;entryDx=0;entryDy=0;" parent="1" source="V3cPVhSnnp--JwQB0Sp9-7" target="V3cPVhSnnp--JwQB0Sp9-10" edge="1">
          <mxGeometry width="160" relative="1" as="geometry">
            <mxPoint x="-4733.259574563177" y="631.0998549647193" as="sourcePoint" />
            <mxPoint x="-4768.740425436821" y="690.4001450352803" as="targetPoint" />
          </mxGeometry>
        </mxCell>
        <mxCell id="V3cPVhSnnp--JwQB0Sp9-41" value="&amp;lt;&amp;lt;include&amp;gt;&amp;gt;" style="html=1;verticalAlign=bottom;labelBackgroundColor=none;endArrow=open;endFill=0;dashed=1;rounded=0;exitX=1;exitY=0.5;exitDx=0;exitDy=0;entryX=0;entryY=0.5;entryDx=0;entryDy=0;" parent="1" source="V3cPVhSnnp--JwQB0Sp9-7" target="V3cPVhSnnp--JwQB0Sp9-9" edge="1">
          <mxGeometry width="160" relative="1" as="geometry">
            <mxPoint x="-4744.999999999999" y="281.5" as="sourcePoint" />
            <mxPoint x="-4665.000000000001" y="226.5" as="targetPoint" />
          </mxGeometry>
        </mxCell>
        <mxCell id="V3cPVhSnnp--JwQB0Sp9-42" value="&amp;lt;&amp;lt;include&amp;gt;&amp;gt;" style="html=1;verticalAlign=bottom;labelBackgroundColor=none;endArrow=open;endFill=0;dashed=1;rounded=0;exitX=1;exitY=0.5;exitDx=0;exitDy=0;entryX=0;entryY=0.5;entryDx=0;entryDy=0;" parent="1" source="V3cPVhSnnp--JwQB0Sp9-7" target="V3cPVhSnnp--JwQB0Sp9-8" edge="1">
          <mxGeometry width="160" relative="1" as="geometry">
            <mxPoint x="-4744.999999999999" y="281.5" as="sourcePoint" />
            <mxPoint x="-4665.000000000001" y="278.4999999999998" as="targetPoint" />
          </mxGeometry>
        </mxCell>
        <mxCell id="V3cPVhSnnp--JwQB0Sp9-43" value="Embedded Template" style="ellipse;whiteSpace=wrap;html=1;" parent="1" vertex="1">
          <mxGeometry x="-4907" y="389" width="127" height="45" as="geometry" />
        </mxCell>
        <mxCell id="V3cPVhSnnp--JwQB0Sp9-44" value="&amp;lt;&amp;lt;extend&amp;gt;&amp;gt;" style="html=1;verticalAlign=bottom;labelBackgroundColor=none;endArrow=open;endFill=0;dashed=1;rounded=0;exitX=0;exitY=1;exitDx=0;exitDy=0;entryX=0.5;entryY=0;entryDx=0;entryDy=0;" parent="1" source="V3cPVhSnnp--JwQB0Sp9-8" target="V3cPVhSnnp--JwQB0Sp9-18" edge="1">
          <mxGeometry width="160" relative="1" as="geometry">
            <mxPoint x="-4518.5" y="677.5" as="sourcePoint" />
            <mxPoint x="-4513.5" y="735" as="targetPoint" />
          </mxGeometry>
        </mxCell>
        <mxCell id="V3cPVhSnnp--JwQB0Sp9-45" value="&amp;lt;&amp;lt;extend&amp;gt;&amp;gt;" style="html=1;verticalAlign=bottom;labelBackgroundColor=none;endArrow=open;endFill=0;dashed=1;rounded=0;exitX=0.5;exitY=1;exitDx=0;exitDy=0;entryX=0.5;entryY=0;entryDx=0;entryDy=0;" parent="1" source="V3cPVhSnnp--JwQB0Sp9-8" target="V3cPVhSnnp--JwQB0Sp9-19" edge="1">
          <mxGeometry width="160" relative="1" as="geometry">
            <mxPoint x="-4617.259574563177" y="346.0998549647195" as="sourcePoint" />
            <mxPoint x="-4670.5" y="387" as="targetPoint" />
          </mxGeometry>
        </mxCell>
        <mxCell id="V3cPVhSnnp--JwQB0Sp9-46" value="&amp;lt;&amp;lt;include&amp;gt;&amp;gt;" style="html=1;verticalAlign=bottom;labelBackgroundColor=none;endArrow=open;endFill=0;dashed=1;rounded=0;exitX=0;exitY=0.5;exitDx=0;exitDy=0;entryX=0.5;entryY=0;entryDx=0;entryDy=0;" parent="1" source="V3cPVhSnnp--JwQB0Sp9-11" target="V3cPVhSnnp--JwQB0Sp9-14" edge="1">
          <mxGeometry width="160" relative="1" as="geometry">
            <mxPoint x="-4744.999999999999" y="281.5" as="sourcePoint" />
            <mxPoint x="-4635.000000000001" y="330.5" as="targetPoint" />
          </mxGeometry>
        </mxCell>
        <mxCell id="V3cPVhSnnp--JwQB0Sp9-47" value="&amp;lt;&amp;lt;include&amp;gt;&amp;gt;" style="html=1;verticalAlign=bottom;labelBackgroundColor=none;endArrow=open;endFill=0;dashed=1;rounded=0;exitX=0;exitY=0.5;exitDx=0;exitDy=0;entryX=0.5;entryY=0;entryDx=0;entryDy=0;" parent="1" edge="1">
          <mxGeometry width="160" relative="1" as="geometry">
            <mxPoint x="-4763.999999999998" y="454" as="sourcePoint" />
            <mxPoint x="-4849.5" y="474.9999999999991" as="targetPoint" />
          </mxGeometry>
        </mxCell>
        <mxCell id="V3cPVhSnnp--JwQB0Sp9-48" value="&amp;lt;&amp;lt;include&amp;gt;&amp;gt;" style="html=1;verticalAlign=bottom;labelBackgroundColor=none;endArrow=open;endFill=0;dashed=1;rounded=0;exitX=0;exitY=1;exitDx=0;exitDy=0;entryX=0.5;entryY=0;entryDx=0;entryDy=0;" parent="1" source="V3cPVhSnnp--JwQB0Sp9-11" target="V3cPVhSnnp--JwQB0Sp9-15" edge="1">
          <mxGeometry width="160" relative="1" as="geometry">
            <mxPoint x="-4753.999999999998" y="464" as="sourcePoint" />
            <mxPoint x="-4839.5" y="485.0000000000002" as="targetPoint" />
          </mxGeometry>
        </mxCell>
        <mxCell id="V3cPVhSnnp--JwQB0Sp9-49" value="&amp;lt;&amp;lt;include&amp;gt;&amp;gt;" style="html=1;verticalAlign=bottom;labelBackgroundColor=none;endArrow=open;endFill=0;dashed=1;rounded=0;exitX=0.5;exitY=1;exitDx=0;exitDy=0;entryX=0.422;entryY=0.038;entryDx=0;entryDy=0;entryPerimeter=0;" parent="1" source="V3cPVhSnnp--JwQB0Sp9-11" target="V3cPVhSnnp--JwQB0Sp9-16" edge="1">
          <mxGeometry width="160" relative="1" as="geometry">
            <mxPoint x="-4736.259574563177" y="479.5998549647195" as="sourcePoint" />
            <mxPoint x="-4752.5" y="532" as="targetPoint" />
          </mxGeometry>
        </mxCell>
        <mxCell id="V3cPVhSnnp--JwQB0Sp9-50" value="&amp;lt;&amp;lt;include&amp;gt;&amp;gt;" style="html=1;verticalAlign=bottom;labelBackgroundColor=none;endArrow=open;endFill=0;dashed=1;rounded=0;exitX=1;exitY=0.5;exitDx=0;exitDy=0;entryX=0.5;entryY=0;entryDx=0;entryDy=0;" parent="1" source="V3cPVhSnnp--JwQB0Sp9-11" target="V3cPVhSnnp--JwQB0Sp9-17" edge="1">
          <mxGeometry width="160" relative="1" as="geometry">
            <mxPoint x="-4690.5" y="486.5" as="sourcePoint" />
            <mxPoint x="-4628.406" y="533.7099999999998" as="targetPoint" />
          </mxGeometry>
        </mxCell>
        <mxCell id="V3cPVhSnnp--JwQB0Sp9-51" value="" style="endArrow=none;html=1;rounded=0;exitX=0.5;exitY=0;exitDx=0;exitDy=0;exitPerimeter=0;entryX=0;entryY=0.5;entryDx=0;entryDy=0;shadow=0;strokeWidth=2;textOpacity=50;opacity=20;" parent="1" source="V3cPVhSnnp--JwQB0Sp9-2" target="V3cPVhSnnp--JwQB0Sp9-6" edge="1">
          <mxGeometry width="50" height="50" relative="1" as="geometry">
            <mxPoint x="-5020" y="419" as="sourcePoint" />
            <mxPoint x="-4970" y="369" as="targetPoint" />
          </mxGeometry>
        </mxCell>
        <mxCell id="V3cPVhSnnp--JwQB0Sp9-52" value="" style="endArrow=none;html=1;rounded=0;exitX=1;exitY=0.3333333333333333;exitDx=0;exitDy=0;exitPerimeter=0;entryX=0;entryY=0.5;entryDx=0;entryDy=0;shadow=0;strokeWidth=2;textOpacity=50;opacity=20;" parent="1" source="V3cPVhSnnp--JwQB0Sp9-2" target="V3cPVhSnnp--JwQB0Sp9-11" edge="1">
          <mxGeometry width="50" height="50" relative="1" as="geometry">
            <mxPoint x="-4992" y="477.5000000000002" as="sourcePoint" />
            <mxPoint x="-4871.999999999998" y="230.5" as="targetPoint" />
          </mxGeometry>
        </mxCell>
        <mxCell id="V3cPVhSnnp--JwQB0Sp9-53" value="" style="endArrow=none;html=1;rounded=0;exitX=1;exitY=1;exitDx=0;exitDy=0;exitPerimeter=0;entryX=0;entryY=0;entryDx=0;entryDy=0;shadow=0;strokeWidth=2;textOpacity=50;opacity=20;" parent="1" source="V3cPVhSnnp--JwQB0Sp9-2" target="V3cPVhSnnp--JwQB0Sp9-21" edge="1">
          <mxGeometry width="50" height="50" relative="1" as="geometry">
            <mxPoint x="-4977" y="497.5000000000002" as="sourcePoint" />
            <mxPoint x="-4753.999999999998" y="464" as="targetPoint" />
          </mxGeometry>
        </mxCell>
        <mxCell id="V3cPVhSnnp--JwQB0Sp9-54" value="" style="endArrow=none;html=1;rounded=0;exitX=1;exitY=1;exitDx=0;exitDy=0;exitPerimeter=0;entryX=0;entryY=0;entryDx=0;entryDy=0;shadow=0;strokeWidth=2;textOpacity=50;opacity=20;" parent="1" source="V3cPVhSnnp--JwQB0Sp9-2" target="V3cPVhSnnp--JwQB0Sp9-13" edge="1">
          <mxGeometry width="50" height="50" relative="1" as="geometry">
            <mxPoint x="-4977" y="537.5000000000002" as="sourcePoint" />
            <mxPoint x="-4733.259574563177" y="599.9001450352803" as="targetPoint" />
          </mxGeometry>
        </mxCell>
        <mxCell id="V3cPVhSnnp--JwQB0Sp9-55" value="" style="endArrow=none;html=1;rounded=0;exitX=1;exitY=0.5;exitDx=0;exitDy=0;entryX=0;entryY=1;entryDx=0;entryDy=0;shadow=0;strokeWidth=2;textOpacity=50;opacity=20;entryPerimeter=0;" parent="1" source="V3cPVhSnnp--JwQB0Sp9-13" target="V3cPVhSnnp--JwQB0Sp9-5" edge="1">
          <mxGeometry width="50" height="50" relative="1" as="geometry">
            <mxPoint x="-4977" y="497.5000000000002" as="sourcePoint" />
            <mxPoint x="-4753.999999999998" y="464" as="targetPoint" />
          </mxGeometry>
        </mxCell>
        <mxCell id="V3cPVhSnnp--JwQB0Sp9-56" value="" style="endArrow=none;html=1;rounded=0;exitX=1;exitY=0.5;exitDx=0;exitDy=0;entryX=0.5;entryY=0;entryDx=0;entryDy=0;shadow=0;strokeWidth=2;textOpacity=50;opacity=20;entryPerimeter=0;" parent="1" source="V3cPVhSnnp--JwQB0Sp9-6" target="V3cPVhSnnp--JwQB0Sp9-5" edge="1">
          <mxGeometry width="50" height="50" relative="1" as="geometry">
            <mxPoint x="-4992" y="477.5000000000002" as="sourcePoint" />
            <mxPoint x="-4871.999999999998" y="230.5" as="targetPoint" />
          </mxGeometry>
        </mxCell>
        <mxCell id="V3cPVhSnnp--JwQB0Sp9-57" value="" style="endArrow=none;html=1;rounded=0;exitX=0;exitY=0.3333333333333333;exitDx=0;exitDy=0;exitPerimeter=0;entryX=1;entryY=0.5;entryDx=0;entryDy=0;shadow=0;strokeWidth=2;textOpacity=50;opacity=20;" parent="1" source="V3cPVhSnnp--JwQB0Sp9-5" target="V3cPVhSnnp--JwQB0Sp9-11" edge="1">
          <mxGeometry width="50" height="50" relative="1" as="geometry">
            <mxPoint x="-4977" y="497.5000000000002" as="sourcePoint" />
            <mxPoint x="-4753.999999999998" y="464" as="targetPoint" />
          </mxGeometry>
        </mxCell>
        <mxCell id="V3cPVhSnnp--JwQB0Sp9-58" value="" style="endArrow=none;html=1;rounded=0;exitX=0;exitY=0.3333333333333333;exitDx=0;exitDy=0;exitPerimeter=0;entryX=1;entryY=0.5;entryDx=0;entryDy=0;shadow=0;strokeWidth=2;textOpacity=50;opacity=20;" parent="1" source="V3cPVhSnnp--JwQB0Sp9-5" target="V3cPVhSnnp--JwQB0Sp9-21" edge="1">
          <mxGeometry width="50" height="50" relative="1" as="geometry">
            <mxPoint x="-4348" y="373.6666666666663" as="sourcePoint" />
            <mxPoint x="-4627.000000000002" y="464" as="targetPoint" />
          </mxGeometry>
        </mxCell>
        <mxCell id="V3cPVhSnnp--JwQB0Sp9-59" value="Mind Map Manager" style="rounded=0;whiteSpace=wrap;html=1;strokeColor=none;" parent="1" vertex="1">
          <mxGeometry x="-4362" y="583" width="68" height="25" as="geometry" />
        </mxCell>
        <mxCell id="V3cPVhSnnp--JwQB0Sp9-60" value="Mind Map User" style="rounded=0;whiteSpace=wrap;html=1;strokeColor=none;" parent="1" vertex="1">
          <mxGeometry x="-4362" y="403" width="68" height="25" as="geometry" />
        </mxCell>
        <mxCell id="V3cPVhSnnp--JwQB0Sp9-61" value="Admin" style="rounded=0;whiteSpace=wrap;html=1;strokeColor=none;" parent="1" vertex="1">
          <mxGeometry x="-5046" y="534" width="68" height="25" as="geometry" />
        </mxCell>
        <mxCell id="d1NOQ1Tx7TnRLePkJNtO-1" value="" style="rounded=0;whiteSpace=wrap;html=1;" parent="1" vertex="1">
          <mxGeometry x="-4802" y="-679" width="390" height="293" as="geometry" />
        </mxCell>
        <mxCell id="d1NOQ1Tx7TnRLePkJNtO-2" value="" style="rounded=1;whiteSpace=wrap;html=1;" parent="1" vertex="1">
          <mxGeometry x="-4807" y="-781" width="400" height="90" as="geometry" />
        </mxCell>
        <mxCell id="d1NOQ1Tx7TnRLePkJNtO-3" style="edgeStyle=orthogonalEdgeStyle;rounded=0;orthogonalLoop=1;jettySize=auto;html=1;exitX=0.5;exitY=1;exitDx=0;exitDy=0;entryX=0;entryY=0.5;entryDx=0;entryDy=0;shadow=0;endArrow=blockThin;endFill=0;strokeWidth=2;opacity=20;" parent="1" source="d1NOQ1Tx7TnRLePkJNtO-4" target="d1NOQ1Tx7TnRLePkJNtO-9" edge="1">
          <mxGeometry relative="1" as="geometry" />
        </mxCell>
        <mxCell id="d1NOQ1Tx7TnRLePkJNtO-4" value="Management" style="rounded=1;whiteSpace=wrap;html=1;" parent="1" vertex="1">
          <mxGeometry x="-4796" y="-750" width="120" height="48" as="geometry" />
        </mxCell>
        <mxCell id="d1NOQ1Tx7TnRLePkJNtO-5" value="API Documentation" style="rounded=1;whiteSpace=wrap;html=1;" parent="1" vertex="1">
          <mxGeometry x="-4667" y="-750" width="120" height="48" as="geometry" />
        </mxCell>
        <mxCell id="d1NOQ1Tx7TnRLePkJNtO-6" style="edgeStyle=orthogonalEdgeStyle;rounded=0;orthogonalLoop=1;jettySize=auto;html=1;exitX=0.5;exitY=1;exitDx=0;exitDy=0;entryX=1;entryY=0.5;entryDx=0;entryDy=0;shadow=0;endArrow=blockThin;endFill=0;strokeWidth=2;opacity=20;" parent="1" source="d1NOQ1Tx7TnRLePkJNtO-7" target="d1NOQ1Tx7TnRLePkJNtO-9" edge="1">
          <mxGeometry relative="1" as="geometry" />
        </mxCell>
        <mxCell id="d1NOQ1Tx7TnRLePkJNtO-7" value="Administration" style="rounded=1;whiteSpace=wrap;html=1;" parent="1" vertex="1">
          <mxGeometry x="-4538" y="-750" width="120" height="48" as="geometry" />
        </mxCell>
        <mxCell id="d1NOQ1Tx7TnRLePkJNtO-8" value="Administration Layer" style="text;html=1;strokeColor=none;fillColor=none;align=center;verticalAlign=middle;whiteSpace=wrap;rounded=0;" parent="1" vertex="1">
          <mxGeometry x="-4679.5" y="-781" width="145" height="30" as="geometry" />
        </mxCell>
        <mxCell id="d1NOQ1Tx7TnRLePkJNtO-9" value="Web Application Server" style="text;html=1;strokeColor=none;fillColor=none;align=center;verticalAlign=middle;whiteSpace=wrap;rounded=0;" parent="1" vertex="1">
          <mxGeometry x="-4673.5" y="-676" width="145" height="30" as="geometry" />
        </mxCell>
        <mxCell id="d1NOQ1Tx7TnRLePkJNtO-10" value="API Layer" style="text;html=1;strokeColor=none;fillColor=none;align=center;verticalAlign=middle;whiteSpace=wrap;rounded=0;" parent="1" vertex="1">
          <mxGeometry x="-4778" y="-646" width="60" height="30" as="geometry" />
        </mxCell>
        <mxCell id="d1NOQ1Tx7TnRLePkJNtO-11" value="API&lt;br&gt;For&lt;br&gt;Nodes&lt;br&gt;and&lt;br&gt;Branches&amp;nbsp;" style="rounded=1;whiteSpace=wrap;html=1;" parent="1" vertex="1">
          <mxGeometry x="-4776.5" y="-616" width="54.5" height="212" as="geometry" />
        </mxCell>
        <mxCell id="d1NOQ1Tx7TnRLePkJNtO-12" value="Application Layer" style="text;html=1;strokeColor=none;fillColor=none;align=center;verticalAlign=middle;whiteSpace=wrap;rounded=0;" parent="1" vertex="1">
          <mxGeometry x="-4641" y="-649" width="60" height="30" as="geometry" />
        </mxCell>
        <mxCell id="d1NOQ1Tx7TnRLePkJNtO-13" value="Registration" style="rounded=1;whiteSpace=wrap;html=1;" parent="1" vertex="1">
          <mxGeometry x="-4692" y="-616" width="78" height="66" as="geometry" />
        </mxCell>
        <mxCell id="d1NOQ1Tx7TnRLePkJNtO-14" value="Upload File" style="rounded=1;whiteSpace=wrap;html=1;" parent="1" vertex="1">
          <mxGeometry x="-4606.5" y="-616" width="78" height="66" as="geometry" />
        </mxCell>
        <mxCell id="d1NOQ1Tx7TnRLePkJNtO-15" value="Database Layer" style="text;html=1;strokeColor=none;fillColor=none;align=center;verticalAlign=middle;whiteSpace=wrap;rounded=0;" parent="1" vertex="1">
          <mxGeometry x="-4499" y="-646" width="60" height="30" as="geometry" />
        </mxCell>
        <mxCell id="d1NOQ1Tx7TnRLePkJNtO-16" style="edgeStyle=orthogonalEdgeStyle;rounded=0;orthogonalLoop=1;jettySize=auto;html=1;exitX=0;exitY=0.5;exitDx=0;exitDy=0;entryX=1;entryY=0.5;entryDx=0;entryDy=0;shadow=0;endArrow=blockThin;endFill=0;strokeWidth=2;opacity=20;" parent="1" source="d1NOQ1Tx7TnRLePkJNtO-17" target="d1NOQ1Tx7TnRLePkJNtO-14" edge="1">
          <mxGeometry relative="1" as="geometry" />
        </mxCell>
        <mxCell id="d1NOQ1Tx7TnRLePkJNtO-17" value="MySQL&lt;br&gt;(Actions)" style="rounded=0;whiteSpace=wrap;html=1;gradientColor=none;" parent="1" vertex="1">
          <mxGeometry x="-4508" y="-616" width="78" height="66" as="geometry" />
        </mxCell>
        <mxCell id="d1NOQ1Tx7TnRLePkJNtO-18" style="edgeStyle=orthogonalEdgeStyle;rounded=0;orthogonalLoop=1;jettySize=auto;html=1;exitX=0;exitY=0.5;exitDx=0;exitDy=0;entryX=1;entryY=0.5;entryDx=0;entryDy=0;shadow=0;endArrow=blockThin;endFill=0;strokeWidth=2;opacity=20;" parent="1" source="d1NOQ1Tx7TnRLePkJNtO-19" target="d1NOQ1Tx7TnRLePkJNtO-23" edge="1">
          <mxGeometry relative="1" as="geometry" />
        </mxCell>
        <mxCell id="d1NOQ1Tx7TnRLePkJNtO-19" value="MySQL&lt;br&gt;(Association&lt;br&gt;Rules)" style="rounded=0;whiteSpace=wrap;html=1;" parent="1" vertex="1">
          <mxGeometry x="-4511" y="-471.5" width="78" height="66" as="geometry" />
        </mxCell>
        <mxCell id="d1NOQ1Tx7TnRLePkJNtO-20" value="Content Display" style="rounded=1;whiteSpace=wrap;html=1;" parent="1" vertex="1">
          <mxGeometry x="-4692" y="-543" width="78" height="66" as="geometry" />
        </mxCell>
        <mxCell id="d1NOQ1Tx7TnRLePkJNtO-21" value="User Authentication" style="rounded=1;whiteSpace=wrap;html=1;" parent="1" vertex="1">
          <mxGeometry x="-4606.5" y="-543" width="78" height="66" as="geometry" />
        </mxCell>
        <mxCell id="d1NOQ1Tx7TnRLePkJNtO-22" value="Floating&lt;br&gt;Nodes &amp;amp;&lt;br&gt;Branches" style="rounded=1;whiteSpace=wrap;html=1;" parent="1" vertex="1">
          <mxGeometry x="-4692" y="-471.5" width="78" height="66" as="geometry" />
        </mxCell>
        <mxCell id="d1NOQ1Tx7TnRLePkJNtO-23" value="Comment &amp;amp;&lt;br&gt;Log" style="rounded=1;whiteSpace=wrap;html=1;" parent="1" vertex="1">
          <mxGeometry x="-4606.5" y="-471.5" width="78" height="66" as="geometry" />
        </mxCell>
        <mxCell id="d1NOQ1Tx7TnRLePkJNtO-24" value="" style="rounded=0;whiteSpace=wrap;html=1;gradientColor=none;" parent="1" vertex="1">
          <mxGeometry x="-4911" y="-679" width="87" height="293" as="geometry" />
        </mxCell>
        <mxCell id="d1NOQ1Tx7TnRLePkJNtO-25" value="Client&lt;br&gt;Side" style="text;html=1;strokeColor=none;fillColor=none;align=center;verticalAlign=middle;whiteSpace=wrap;rounded=0;" parent="1" vertex="1">
          <mxGeometry x="-4897.5" y="-668" width="60" height="30" as="geometry" />
        </mxCell>
        <mxCell id="d1NOQ1Tx7TnRLePkJNtO-26" value="Client&lt;br&gt;Application 1" style="rounded=0;whiteSpace=wrap;html=1;gradientColor=none;" parent="1" vertex="1">
          <mxGeometry x="-4902.25" y="-623" width="69.5" height="66" as="geometry" />
        </mxCell>
        <mxCell id="d1NOQ1Tx7TnRLePkJNtO-27" value="Client&lt;br&gt;Application 2" style="rounded=0;whiteSpace=wrap;html=1;gradientColor=none;" parent="1" vertex="1">
          <mxGeometry x="-4902.25" y="-550" width="69.5" height="66" as="geometry" />
        </mxCell>
        <mxCell id="d1NOQ1Tx7TnRLePkJNtO-28" value="Client&lt;br&gt;Application N" style="rounded=0;whiteSpace=wrap;html=1;gradientColor=none;" parent="1" vertex="1">
          <mxGeometry x="-4902.25" y="-474.5" width="69.5" height="66" as="geometry" />
        </mxCell>
        <mxCell id="d1NOQ1Tx7TnRLePkJNtO-29" value="" style="endArrow=blockThin;html=1;rounded=0;shadow=0;strokeWidth=2;opacity=20;entryX=1;entryY=0.5;entryDx=0;entryDy=0;exitX=0.5;exitY=1;exitDx=0;exitDy=0;endFill=0;" parent="1" source="d1NOQ1Tx7TnRLePkJNtO-17" target="d1NOQ1Tx7TnRLePkJNtO-21" edge="1">
          <mxGeometry width="50" height="50" relative="1" as="geometry">
            <mxPoint x="-4790" y="-364" as="sourcePoint" />
            <mxPoint x="-4740" y="-414" as="targetPoint" />
          </mxGeometry>
        </mxCell>
        <mxCell id="d1NOQ1Tx7TnRLePkJNtO-30" value="" style="endArrow=blockThin;html=1;rounded=0;shadow=0;strokeWidth=2;opacity=20;entryX=1;entryY=0.5;entryDx=0;entryDy=0;exitX=0.5;exitY=1;exitDx=0;exitDy=0;endFill=0;" parent="1" source="d1NOQ1Tx7TnRLePkJNtO-17" target="d1NOQ1Tx7TnRLePkJNtO-23" edge="1">
          <mxGeometry width="50" height="50" relative="1" as="geometry">
            <mxPoint x="-4459" y="-540" as="sourcePoint" />
            <mxPoint x="-4518.5" y="-500" as="targetPoint" />
          </mxGeometry>
        </mxCell>
        <mxCell id="d1NOQ1Tx7TnRLePkJNtO-31" value="" style="endArrow=blockThin;html=1;rounded=0;shadow=0;strokeWidth=2;opacity=20;entryX=0;entryY=0.5;entryDx=0;entryDy=0;exitX=1;exitY=0.25;exitDx=0;exitDy=0;endFill=0;" parent="1" source="d1NOQ1Tx7TnRLePkJNtO-11" target="d1NOQ1Tx7TnRLePkJNtO-13" edge="1">
          <mxGeometry width="50" height="50" relative="1" as="geometry">
            <mxPoint x="-4449" y="-530" as="sourcePoint" />
            <mxPoint x="-4508.5" y="-490" as="targetPoint" />
          </mxGeometry>
        </mxCell>
        <mxCell id="d1NOQ1Tx7TnRLePkJNtO-32" value="" style="endArrow=blockThin;html=1;rounded=0;shadow=0;strokeWidth=2;opacity=20;entryX=1;entryY=0.75;entryDx=0;entryDy=0;exitX=0;exitY=0.5;exitDx=0;exitDy=0;endFill=0;" parent="1" source="d1NOQ1Tx7TnRLePkJNtO-22" target="d1NOQ1Tx7TnRLePkJNtO-11" edge="1">
          <mxGeometry width="50" height="50" relative="1" as="geometry">
            <mxPoint x="-4439" y="-520" as="sourcePoint" />
            <mxPoint x="-4498.5" y="-480" as="targetPoint" />
          </mxGeometry>
        </mxCell>
        <mxCell id="d1NOQ1Tx7TnRLePkJNtO-33" value="" style="endArrow=blockThin;html=1;rounded=0;shadow=0;strokeWidth=2;opacity=20;entryX=0;entryY=0.25;entryDx=0;entryDy=0;exitX=1;exitY=0.5;exitDx=0;exitDy=0;endFill=0;" parent="1" source="d1NOQ1Tx7TnRLePkJNtO-26" target="d1NOQ1Tx7TnRLePkJNtO-11" edge="1">
          <mxGeometry width="50" height="50" relative="1" as="geometry">
            <mxPoint x="-4429" y="-510" as="sourcePoint" />
            <mxPoint x="-4488.5" y="-470" as="targetPoint" />
          </mxGeometry>
        </mxCell>
        <mxCell id="d1NOQ1Tx7TnRLePkJNtO-34" value="" style="endArrow=blockThin;html=1;rounded=0;shadow=0;strokeWidth=2;opacity=20;entryX=0;entryY=0.5;entryDx=0;entryDy=0;exitX=1;exitY=0.5;exitDx=0;exitDy=0;endFill=0;" parent="1" source="d1NOQ1Tx7TnRLePkJNtO-27" target="d1NOQ1Tx7TnRLePkJNtO-11" edge="1">
          <mxGeometry width="50" height="50" relative="1" as="geometry">
            <mxPoint x="-4822.75" y="-580" as="sourcePoint" />
            <mxPoint x="-4766.5" y="-552.9999999999998" as="targetPoint" />
          </mxGeometry>
        </mxCell>
        <mxCell id="d1NOQ1Tx7TnRLePkJNtO-35" value="" style="endArrow=blockThin;html=1;rounded=0;shadow=0;strokeWidth=2;opacity=20;entryX=0;entryY=0.75;entryDx=0;entryDy=0;exitX=1;exitY=0.5;exitDx=0;exitDy=0;endFill=0;" parent="1" source="d1NOQ1Tx7TnRLePkJNtO-28" target="d1NOQ1Tx7TnRLePkJNtO-11" edge="1">
          <mxGeometry width="50" height="50" relative="1" as="geometry">
            <mxPoint x="-4812.75" y="-570" as="sourcePoint" />
            <mxPoint x="-4756.5" y="-542.9999999999998" as="targetPoint" />
          </mxGeometry>
        </mxCell>
        <mxCell id="J1zAKjpW3YgSJhf_qmB--1" style="edgeStyle=orthogonalEdgeStyle;rounded=0;orthogonalLoop=1;jettySize=auto;html=1;exitX=0;exitY=0.5;exitDx=0;exitDy=0;entryX=0.99;entryY=0.655;entryDx=0;entryDy=0;entryPerimeter=0;shadow=0;endArrow=none;endFill=0;strokeWidth=1;" parent="1" source="J1zAKjpW3YgSJhf_qmB--2" target="J1zAKjpW3YgSJhf_qmB--14" edge="1">
          <mxGeometry relative="1" as="geometry" />
        </mxCell>
        <mxCell id="J1zAKjpW3YgSJhf_qmB--2" value="&lt;p style=&quot;margin: 0px ; margin-top: 4px ; text-align: center&quot;&gt;&lt;b&gt;User&lt;/b&gt;&lt;/p&gt;&lt;hr size=&quot;1&quot;&gt;&lt;p style=&quot;margin: 0px ; margin-left: 4px&quot;&gt;+ userID&lt;/p&gt;&lt;p style=&quot;margin: 0px ; margin-left: 4px&quot;&gt;+ userName&lt;/p&gt;&lt;p style=&quot;margin: 0px ; margin-left: 4px&quot;&gt;+ userEmail&lt;/p&gt;&lt;p style=&quot;margin: 0px ; margin-left: 4px&quot;&gt;+ password&lt;/p&gt;&lt;p style=&quot;margin: 0px ; margin-left: 4px&quot;&gt;+ loginStatus&lt;/p&gt;&lt;p style=&quot;margin: 0px ; margin-left: 4px&quot;&gt;+ countMaps&lt;/p&gt;&lt;hr size=&quot;1&quot;&gt;&lt;p style=&quot;margin: 0px ; margin-left: 4px&quot;&gt;+ verifyLogin()&lt;/p&gt;&lt;p style=&quot;margin: 0px ; margin-left: 4px&quot;&gt;+ draw()&lt;/p&gt;&lt;p style=&quot;margin: 0px ; margin-left: 4px&quot;&gt;+ upload()&lt;/p&gt;&lt;p style=&quot;margin: 0px ; margin-left: 4px&quot;&gt;+ download()&lt;/p&gt;&lt;p style=&quot;margin: 0px ; margin-left: 4px&quot;&gt;+ comment()&lt;/p&gt;&lt;p style=&quot;margin: 0px ; margin-left: 4px&quot;&gt;+ share()&lt;/p&gt;&lt;p style=&quot;margin: 0px ; margin-left: 4px&quot;&gt;&lt;br&gt;&lt;/p&gt;" style="verticalAlign=top;align=left;overflow=fill;fontSize=12;fontFamily=Helvetica;html=1;rounded=0;gradientColor=none;" parent="1" vertex="1">
          <mxGeometry x="-3910.5" y="-674" width="152.5" height="224" as="geometry" />
        </mxCell>
        <mxCell id="J1zAKjpW3YgSJhf_qmB--3" style="edgeStyle=orthogonalEdgeStyle;rounded=0;orthogonalLoop=1;jettySize=auto;html=1;exitX=0;exitY=0.25;exitDx=0;exitDy=0;entryX=0.993;entryY=0.903;entryDx=0;entryDy=0;entryPerimeter=0;shadow=0;endArrow=diamond;endFill=1;strokeWidth=1;" parent="1" source="J1zAKjpW3YgSJhf_qmB--4" target="J1zAKjpW3YgSJhf_qmB--2" edge="1">
          <mxGeometry relative="1" as="geometry" />
        </mxCell>
        <mxCell id="J1zAKjpW3YgSJhf_qmB--4" value="&lt;p style=&quot;margin: 0px ; margin-top: 4px ; text-align: center&quot;&gt;&lt;b&gt;Register&lt;/b&gt;&lt;/p&gt;&lt;hr size=&quot;1&quot;&gt;&lt;p style=&quot;margin: 0px ; margin-left: 4px&quot;&gt;+ email&lt;/p&gt;&lt;p style=&quot;margin: 0px ; margin-left: 4px&quot;&gt;+ firstName&lt;/p&gt;&lt;p style=&quot;margin: 0px ; margin-left: 4px&quot;&gt;+ lastName&lt;/p&gt;&lt;p style=&quot;margin: 0px ; margin-left: 4px&quot;&gt;+ password&lt;/p&gt;&lt;p style=&quot;margin: 0px ; margin-left: 4px&quot;&gt;+ registerDate&lt;/p&gt;&lt;hr size=&quot;1&quot;&gt;&lt;p style=&quot;margin: 0px ; margin-left: 4px&quot;&gt;+ registerUser()&lt;/p&gt;&lt;p style=&quot;margin: 0px ; margin-left: 4px&quot;&gt;+ Login()&lt;/p&gt;&lt;p style=&quot;margin: 0px ; margin-left: 4px&quot;&gt;+ Logout()&lt;/p&gt;" style="verticalAlign=top;align=left;overflow=fill;fontSize=12;fontFamily=Helvetica;html=1;rounded=0;gradientColor=none;" parent="1" vertex="1">
          <mxGeometry x="-3692" y="-513" width="152.5" height="167" as="geometry" />
        </mxCell>
        <mxCell id="J1zAKjpW3YgSJhf_qmB--5" style="edgeStyle=orthogonalEdgeStyle;rounded=0;orthogonalLoop=1;jettySize=auto;html=1;exitX=1;exitY=0.5;exitDx=0;exitDy=0;entryX=1;entryY=0.25;entryDx=0;entryDy=0;shadow=0;endArrow=block;endFill=0;strokeWidth=1;" parent="1" source="J1zAKjpW3YgSJhf_qmB--7" target="J1zAKjpW3YgSJhf_qmB--2" edge="1">
          <mxGeometry relative="1" as="geometry">
            <Array as="points">
              <mxPoint x="-3722" y="-774" />
              <mxPoint x="-3722" y="-618" />
            </Array>
          </mxGeometry>
        </mxCell>
        <mxCell id="J1zAKjpW3YgSJhf_qmB--6" value="Manages" style="edgeLabel;html=1;align=center;verticalAlign=middle;resizable=0;points=[];" parent="J1zAKjpW3YgSJhf_qmB--5" vertex="1" connectable="0">
          <mxGeometry x="-0.1073" y="3" relative="1" as="geometry">
            <mxPoint x="-8" y="8" as="offset" />
          </mxGeometry>
        </mxCell>
        <mxCell id="J1zAKjpW3YgSJhf_qmB--7" value="&lt;p style=&quot;margin: 0px ; margin-top: 4px ; text-align: center&quot;&gt;&lt;b&gt;Admin&lt;/b&gt;&lt;/p&gt;&lt;hr size=&quot;1&quot;&gt;&lt;p style=&quot;margin: 0px ; margin-left: 4px&quot;&gt;+ adminName&lt;/p&gt;&lt;hr size=&quot;1&quot;&gt;&lt;p style=&quot;margin: 0px ; margin-left: 4px&quot;&gt;+ editUser()&lt;/p&gt;&lt;p style=&quot;margin: 0px ; margin-left: 4px&quot;&gt;+ deleteUser()&lt;/p&gt;&lt;p style=&quot;margin: 0px ; margin-left: 4px&quot;&gt;+ viewUser()&lt;/p&gt;" style="verticalAlign=top;align=left;overflow=fill;fontSize=12;fontFamily=Helvetica;html=1;rounded=0;gradientColor=none;" parent="1" vertex="1">
          <mxGeometry x="-3910.5" y="-803" width="152.5" height="110" as="geometry" />
        </mxCell>
        <mxCell id="J1zAKjpW3YgSJhf_qmB--8" style="edgeStyle=orthogonalEdgeStyle;rounded=0;orthogonalLoop=1;jettySize=auto;html=1;exitX=0;exitY=0.5;exitDx=0;exitDy=0;shadow=0;endArrow=diamond;endFill=1;strokeWidth=1;startArrow=none;" parent="1" source="J1zAKjpW3YgSJhf_qmB--16" edge="1">
          <mxGeometry relative="1" as="geometry">
            <mxPoint x="-3755.2941284179688" y="-598.5294117647059" as="targetPoint" />
          </mxGeometry>
        </mxCell>
        <mxCell id="J1zAKjpW3YgSJhf_qmB--9" style="edgeStyle=orthogonalEdgeStyle;rounded=0;orthogonalLoop=1;jettySize=auto;html=1;exitX=1;exitY=0.75;exitDx=0;exitDy=0;entryX=1;entryY=0.75;entryDx=0;entryDy=0;shadow=0;endArrow=none;endFill=0;strokeWidth=1;" parent="1" source="J1zAKjpW3YgSJhf_qmB--11" target="J1zAKjpW3YgSJhf_qmB--15" edge="1">
          <mxGeometry relative="1" as="geometry" />
        </mxCell>
        <mxCell id="J1zAKjpW3YgSJhf_qmB--10" value="records" style="edgeLabel;html=1;align=center;verticalAlign=middle;resizable=0;points=[];" parent="J1zAKjpW3YgSJhf_qmB--9" vertex="1" connectable="0">
          <mxGeometry x="0.4706" y="-4" relative="1" as="geometry">
            <mxPoint x="-1" as="offset" />
          </mxGeometry>
        </mxCell>
        <mxCell id="J1zAKjpW3YgSJhf_qmB--11" value="&lt;p style=&quot;margin: 0px ; margin-top: 4px ; text-align: center&quot;&gt;&lt;b&gt;UserActivity&lt;/b&gt;&lt;/p&gt;&lt;hr size=&quot;1&quot;&gt;&lt;p style=&quot;margin: 0px ; margin-left: 4px&quot;&gt;+ lastLogin&lt;/p&gt;&lt;p style=&quot;margin: 0px ; margin-left: 4px&quot;&gt;+ timeLoggedIn&lt;/p&gt;&lt;p style=&quot;margin: 0px ; margin-left: 4px&quot;&gt;+ ifModify&lt;/p&gt;&lt;p style=&quot;margin: 0px ; margin-left: 4px&quot;&gt;+ countModify&lt;/p&gt;&lt;hr size=&quot;1&quot;&gt;&lt;p style=&quot;margin: 0px ; margin-left: 4px&quot;&gt;+ getLastLogin()&lt;/p&gt;&lt;p style=&quot;margin: 0px ; margin-left: 4px&quot;&gt;+ getTimeLoggedIn()&lt;/p&gt;&lt;p style=&quot;margin: 0px ; margin-left: 4px&quot;&gt;+ getModified()&lt;/p&gt;" style="verticalAlign=top;align=left;overflow=fill;fontSize=12;fontFamily=Helvetica;html=1;rounded=0;gradientColor=none;" parent="1" vertex="1">
          <mxGeometry x="-3692" y="-674" width="152.5" height="151" as="geometry" />
        </mxCell>
        <mxCell id="J1zAKjpW3YgSJhf_qmB--12" style="edgeStyle=orthogonalEdgeStyle;rounded=0;orthogonalLoop=1;jettySize=auto;html=1;exitX=0.5;exitY=1;exitDx=0;exitDy=0;entryX=0;entryY=0.5;entryDx=0;entryDy=0;shadow=0;endArrow=none;endFill=0;strokeWidth=1;" parent="1" source="J1zAKjpW3YgSJhf_qmB--14" target="J1zAKjpW3YgSJhf_qmB--15" edge="1">
          <mxGeometry relative="1" as="geometry" />
        </mxCell>
        <mxCell id="J1zAKjpW3YgSJhf_qmB--13" value="creates" style="edgeLabel;html=1;align=center;verticalAlign=middle;resizable=0;points=[];" parent="J1zAKjpW3YgSJhf_qmB--12" vertex="1" connectable="0">
          <mxGeometry x="-0.3206" y="9" relative="1" as="geometry">
            <mxPoint as="offset" />
          </mxGeometry>
        </mxCell>
        <mxCell id="J1zAKjpW3YgSJhf_qmB--14" value="&lt;p style=&quot;margin: 0px ; margin-top: 4px ; text-align: center&quot;&gt;&lt;b&gt;Draw&lt;/b&gt;&lt;/p&gt;&lt;hr size=&quot;1&quot;&gt;&lt;p style=&quot;margin: 0px ; margin-left: 4px&quot;&gt;+ countNode&lt;/p&gt;&lt;p style=&quot;margin: 0px ; margin-left: 4px&quot;&gt;+ countBranch&lt;/p&gt;&lt;p style=&quot;margin: 0px ; margin-left: 4px&quot;&gt;+ nodeStyle&lt;/p&gt;&lt;p style=&quot;margin: 0px ; margin-left: 4px&quot;&gt;+ branchStyle&lt;/p&gt;&lt;p style=&quot;margin: 0px ; margin-left: 4px&quot;&gt;+ bgStyle&lt;/p&gt;&lt;hr size=&quot;1&quot;&gt;&lt;p style=&quot;margin: 0px ; margin-left: 4px&quot;&gt;+ createNode()&lt;/p&gt;&lt;p style=&quot;margin: 0px ; margin-left: 4px&quot;&gt;+ createBranch()&lt;/p&gt;&lt;p style=&quot;margin: 0px ; margin-left: 4px&quot;&gt;+ deleteNode()&lt;/p&gt;&lt;p style=&quot;margin: 0px ; margin-left: 4px&quot;&gt;+ deleteBranch()&lt;/p&gt;&lt;p style=&quot;margin: 0px ; margin-left: 4px&quot;&gt;+ modifyNode()&lt;/p&gt;&lt;p style=&quot;margin: 0px ; margin-left: 4px&quot;&gt;+ modifyBranch()&lt;/p&gt;&lt;p style=&quot;margin: 0px ; margin-left: 4px&quot;&gt;+ moveNode()&lt;br&gt;&lt;/p&gt;&lt;p style=&quot;margin: 0px ; margin-left: 4px&quot;&gt;+ moveBranch()&lt;/p&gt;&lt;p style=&quot;margin: 0px ; margin-left: 4px&quot;&gt;+ comment()&lt;/p&gt;&lt;p style=&quot;margin: 0px ; margin-left: 4px&quot;&gt;+ writeText()&lt;/p&gt;&lt;p style=&quot;margin: 0px ; margin-left: 4px&quot;&gt;+ upload()&lt;/p&gt;&lt;p style=&quot;margin: 0px ; margin-left: 4px&quot;&gt;+ import()&lt;/p&gt;&lt;p style=&quot;margin: 0px ; margin-left: 4px&quot;&gt;+ moveFloat()&lt;/p&gt;&lt;p style=&quot;margin: 0px ; margin-left: 4px&quot;&gt;+ getHistory&lt;/p&gt;&lt;p style=&quot;margin: 0px ; margin-left: 4px&quot;&gt;&lt;br&gt;&lt;/p&gt;&lt;p style=&quot;margin: 0px ; margin-left: 4px&quot;&gt;&lt;br&gt;&lt;/p&gt;" style="verticalAlign=top;align=left;overflow=fill;fontSize=12;fontFamily=Helvetica;html=1;rounded=0;gradientColor=none;" parent="1" vertex="1">
          <mxGeometry x="-4114" y="-774" width="152.5" height="324" as="geometry" />
        </mxCell>
        <mxCell id="J1zAKjpW3YgSJhf_qmB--15" value="&lt;p style=&quot;margin: 0px ; margin-top: 4px ; text-align: center&quot;&gt;&lt;b&gt;Diagram&lt;/b&gt;&lt;/p&gt;&lt;hr size=&quot;1&quot;&gt;&lt;p style=&quot;margin: 0px ; margin-left: 4px&quot;&gt;+ host&lt;/p&gt;&lt;p style=&quot;margin: 0px ; margin-left: 4px&quot;&gt;+ link&lt;/p&gt;&lt;p style=&quot;margin: 0px ; margin-left: 4px&quot;&gt;+ size&lt;/p&gt;&lt;p style=&quot;margin: 0px ; margin-left: 4px&quot;&gt;+ nodeStyle&lt;/p&gt;&lt;p style=&quot;margin: 0px ; margin-left: 4px&quot;&gt;+ branchStyle&lt;/p&gt;&lt;p style=&quot;margin: 0px ; margin-left: 4px&quot;&gt;+ ifShared&lt;/p&gt;&lt;p style=&quot;margin: 0px ; margin-left: 4px&quot;&gt;+ countUser&lt;/p&gt;&lt;p style=&quot;margin: 0px ; margin-left: 4px&quot;&gt;+ commentText&lt;/p&gt;&lt;p style=&quot;margin: 0px ; margin-left: 4px&quot;&gt;+ history&lt;/p&gt;&lt;hr size=&quot;1&quot;&gt;&lt;p style=&quot;margin: 0px ; margin-left: 4px&quot;&gt;+ countUser()&lt;/p&gt;&lt;p style=&quot;margin: 0px ; margin-left: 4px&quot;&gt;+ extend()&lt;/p&gt;&lt;p style=&quot;margin: 0px ; margin-left: 4px&quot;&gt;&lt;br&gt;&lt;/p&gt;&lt;p style=&quot;margin: 0px ; margin-left: 4px&quot;&gt;&lt;br&gt;&lt;/p&gt;" style="verticalAlign=top;align=left;overflow=fill;fontSize=12;fontFamily=Helvetica;html=1;rounded=0;gradientColor=none;" parent="1" vertex="1">
          <mxGeometry x="-3912" y="-432" width="152.5" height="208" as="geometry" />
        </mxCell>
        <mxCell id="J1zAKjpW3YgSJhf_qmB--16" value="has" style="text;html=1;align=center;verticalAlign=middle;resizable=0;points=[];autosize=1;strokeColor=none;fillColor=none;" parent="1" vertex="1">
          <mxGeometry x="-3735" y="-605" width="29" height="18" as="geometry" />
        </mxCell>
        <mxCell id="J1zAKjpW3YgSJhf_qmB--17" value="" style="edgeStyle=orthogonalEdgeStyle;rounded=0;orthogonalLoop=1;jettySize=auto;html=1;exitX=0;exitY=0.5;exitDx=0;exitDy=0;shadow=0;endArrow=none;endFill=1;strokeWidth=1;" parent="1" source="J1zAKjpW3YgSJhf_qmB--11" target="J1zAKjpW3YgSJhf_qmB--16" edge="1">
          <mxGeometry relative="1" as="geometry">
            <mxPoint x="-3755.2941284179688" y="-598.5294117647059" as="targetPoint" />
            <mxPoint x="-3692" y="-598.5" as="sourcePoint" />
          </mxGeometry>
        </mxCell>
        <mxCell id="J1zAKjpW3YgSJhf_qmB--18" value="has" style="text;html=1;align=center;verticalAlign=middle;resizable=0;points=[];autosize=1;strokeColor=none;fillColor=none;" parent="1" vertex="1">
          <mxGeometry x="-3737" y="-468" width="29" height="18" as="geometry" />
        </mxCell>
        <mxCell id="J1zAKjpW3YgSJhf_qmB--19" value="issues" style="text;html=1;align=center;verticalAlign=middle;resizable=0;points=[];autosize=1;strokeColor=none;fillColor=none;" parent="1" vertex="1">
          <mxGeometry x="-3956" y="-561" width="44" height="18" as="geometry" />
        </mxCell>
        <mxCell id="zDMqwwzG-wdOb1bjjmcq-9" value="has" style="edgeStyle=orthogonalEdgeStyle;rounded=0;orthogonalLoop=1;jettySize=auto;html=1;startArrow=diamond;startFill=1;" parent="1" source="zDMqwwzG-wdOb1bjjmcq-1" target="zDMqwwzG-wdOb1bjjmcq-5" edge="1">
          <mxGeometry relative="1" as="geometry" />
        </mxCell>
        <mxCell id="xDkKRqTIg5tSnUdjJHh7-15" style="edgeStyle=orthogonalEdgeStyle;rounded=0;orthogonalLoop=1;jettySize=auto;html=1;exitX=0.5;exitY=1;exitDx=0;exitDy=0;entryX=0.5;entryY=0;entryDx=0;entryDy=0;endArrow=diamondThin;endFill=1;endSize=16;" parent="1" source="zYsDCc8FKc2eDyEw-r5s-1" target="zYsDCc8FKc2eDyEw-r5s-2" edge="1">
          <mxGeometry relative="1" as="geometry" />
        </mxCell>
        <mxCell id="zDMqwwzG-wdOb1bjjmcq-1" value="&lt;p style=&quot;margin: 0px ; margin-top: 4px ; text-align: center&quot;&gt;&lt;b&gt;User&lt;/b&gt;&lt;/p&gt;&lt;hr size=&quot;1&quot;&gt;&lt;p style=&quot;margin: 0px ; margin-left: 4px&quot;&gt;+ userID&lt;/p&gt;&lt;p style=&quot;margin: 0px ; margin-left: 4px&quot;&gt;+ userName&lt;/p&gt;&lt;p style=&quot;margin: 0px ; margin-left: 4px&quot;&gt;+ userEmail&lt;/p&gt;&lt;p style=&quot;margin: 0px ; margin-left: 4px&quot;&gt;+ password&lt;/p&gt;&lt;p style=&quot;margin: 0px ; margin-left: 4px&quot;&gt;+ loginStatus&lt;/p&gt;&lt;p style=&quot;margin: 0px ; margin-left: 4px&quot;&gt;+ countMaps&lt;/p&gt;&lt;hr size=&quot;1&quot;&gt;&lt;p style=&quot;margin: 0px ; margin-left: 4px&quot;&gt;+ verifyLogin()&lt;/p&gt;&lt;p style=&quot;margin: 0px ; margin-left: 4px&quot;&gt;+ draw()&lt;/p&gt;&lt;p style=&quot;margin: 0px ; margin-left: 4px&quot;&gt;+ upload()&lt;/p&gt;&lt;p style=&quot;margin: 0px ; margin-left: 4px&quot;&gt;+ download()&lt;/p&gt;&lt;p style=&quot;margin: 0px ; margin-left: 4px&quot;&gt;+ comment()&lt;/p&gt;&lt;p style=&quot;margin: 0px ; margin-left: 4px&quot;&gt;+ share()&lt;/p&gt;&lt;p style=&quot;margin: 0px ; margin-left: 4px&quot;&gt;&lt;br&gt;&lt;/p&gt;" style="verticalAlign=top;align=left;overflow=fill;fontSize=12;fontFamily=Helvetica;html=1;rounded=0;gradientColor=none;" parent="1" vertex="1">
          <mxGeometry x="-3241" y="-597" width="152.5" height="224" as="geometry" />
        </mxCell>
        <mxCell id="zYsDCc8FKc2eDyEw-r5s-1" value="&lt;p style=&quot;margin: 0px ; margin-top: 4px ; text-align: center&quot;&gt;&lt;b&gt;Project&lt;/b&gt;&lt;/p&gt;&lt;hr size=&quot;1&quot;&gt;&lt;p style=&quot;margin: 0px ; margin-left: 4px&quot;&gt;+ pID&lt;/p&gt;&lt;p style=&quot;margin: 0px ; margin-left: 4px&quot;&gt;+ name&lt;/p&gt;&lt;p style=&quot;margin: 0px ; margin-left: 4px&quot;&gt;+ intro&lt;/p&gt;&lt;p style=&quot;margin: 0px ; margin-left: 4px&quot;&gt;+ role&lt;/p&gt;&lt;p style=&quot;margin: 0px ; margin-left: 4px&quot;&gt;+ parent_project&lt;/p&gt;&lt;p style=&quot;margin: 0px ; margin-left: 4px&quot;&gt;+ create_user&lt;/p&gt;&lt;p style=&quot;margin: 0px ; margin-left: 4px&quot;&gt;+ create_time&lt;/p&gt;&lt;p style=&quot;margin: 0px ; margin-left: 4px&quot;&gt;+ modify_time&lt;/p&gt;&lt;hr size=&quot;1&quot;&gt;&lt;p style=&quot;margin: 0px ; margin-left: 4px&quot;&gt;&lt;br&gt;&lt;/p&gt;" style="verticalAlign=top;align=left;overflow=fill;fontSize=12;fontFamily=Helvetica;html=1;rounded=0;gradientColor=none;" parent="1" vertex="1">
          <mxGeometry x="-3735" y="201" width="152.5" height="176" as="geometry" />
        </mxCell>
        <mxCell id="zDMqwwzG-wdOb1bjjmcq-2" style="edgeStyle=orthogonalEdgeStyle;rounded=0;orthogonalLoop=1;jettySize=auto;html=1;exitX=1;exitY=0.5;exitDx=0;exitDy=0;entryX=1;entryY=0.25;entryDx=0;entryDy=0;shadow=0;endArrow=block;endFill=0;strokeWidth=1;" parent="1" source="zDMqwwzG-wdOb1bjjmcq-4" target="zDMqwwzG-wdOb1bjjmcq-1" edge="1">
          <mxGeometry relative="1" as="geometry">
            <Array as="points">
              <mxPoint x="-3052.5" y="-697" />
              <mxPoint x="-3052.5" y="-541" />
            </Array>
          </mxGeometry>
        </mxCell>
        <mxCell id="zDMqwwzG-wdOb1bjjmcq-3" value="Manages" style="edgeLabel;html=1;align=center;verticalAlign=middle;resizable=0;points=[];" parent="zDMqwwzG-wdOb1bjjmcq-2" vertex="1" connectable="0">
          <mxGeometry x="-0.1073" y="3" relative="1" as="geometry">
            <mxPoint x="-8" y="8" as="offset" />
          </mxGeometry>
        </mxCell>
        <mxCell id="zYsDCc8FKc2eDyEw-r5s-2" value="&lt;p style=&quot;margin: 0px ; margin-top: 4px ; text-align: center&quot;&gt;&lt;b&gt;ProjectCollaborator&lt;/b&gt;&lt;/p&gt;&lt;hr size=&quot;1&quot;&gt;&lt;p style=&quot;margin: 0px ; margin-left: 4px&quot;&gt;+ pID&lt;/p&gt;&lt;p style=&quot;margin: 0px ; margin-left: 4px&quot;&gt;+ user&lt;/p&gt;&lt;p style=&quot;margin: 0px ; margin-left: 4px&quot;&gt;+ role&lt;/p&gt;&lt;p style=&quot;margin: 0px ; margin-left: 4px&quot;&gt;+ create_time&lt;/p&gt;&lt;p style=&quot;margin: 0px ; margin-left: 4px&quot;&gt;+ modify_time&lt;/p&gt;&lt;hr size=&quot;1&quot;&gt;&lt;p style=&quot;margin: 0px ; margin-left: 4px&quot;&gt;&lt;br&gt;&lt;/p&gt;" style="verticalAlign=top;align=left;overflow=fill;fontSize=12;fontFamily=Helvetica;html=1;rounded=0;gradientColor=none;" parent="1" vertex="1">
          <mxGeometry x="-3735" y="483" width="152.5" height="134" as="geometry" />
        </mxCell>
        <mxCell id="zDMqwwzG-wdOb1bjjmcq-4" value="&lt;p style=&quot;margin: 0px ; margin-top: 4px ; text-align: center&quot;&gt;&lt;b&gt;Admin&lt;/b&gt;&lt;/p&gt;&lt;hr size=&quot;1&quot;&gt;&lt;p style=&quot;margin: 0px ; margin-left: 4px&quot;&gt;+ adminName&lt;/p&gt;&lt;hr size=&quot;1&quot;&gt;&lt;p style=&quot;margin: 0px ; margin-left: 4px&quot;&gt;+ editUser()&lt;/p&gt;&lt;p style=&quot;margin: 0px ; margin-left: 4px&quot;&gt;+ deleteUser()&lt;/p&gt;&lt;p style=&quot;margin: 0px ; margin-left: 4px&quot;&gt;+ viewUser()&lt;/p&gt;" style="verticalAlign=top;align=left;overflow=fill;fontSize=12;fontFamily=Helvetica;html=1;rounded=0;gradientColor=none;" parent="1" vertex="1">
          <mxGeometry x="-3241" y="-726" width="152.5" height="110" as="geometry" />
        </mxCell>
        <mxCell id="zYsDCc8FKc2eDyEw-r5s-6" style="edgeStyle=orthogonalEdgeStyle;rounded=0;orthogonalLoop=1;jettySize=auto;html=1;exitX=1;exitY=0.25;exitDx=0;exitDy=0;entryX=0;entryY=0.5;entryDx=0;entryDy=0;endArrow=diamondThin;endFill=0;endSize=16;" parent="1" source="zYsDCc8FKc2eDyEw-r5s-3" target="zYsDCc8FKc2eDyEw-r5s-1" edge="1">
          <mxGeometry relative="1" as="geometry" />
        </mxCell>
        <mxCell id="zDMqwwzG-wdOb1bjjmcq-5" value="&lt;p style=&quot;margin: 0px ; margin-top: 4px ; text-align: center&quot;&gt;&lt;b&gt;UserProfilePhoto&lt;/b&gt;&lt;/p&gt;&lt;hr size=&quot;1&quot;&gt;&lt;p style=&quot;margin: 0px ; margin-left: 4px&quot;&gt;+ userID&lt;/p&gt;&lt;p style=&quot;margin: 0px ; margin-left: 4px&quot;&gt;+ photoID&lt;/p&gt;&lt;p style=&quot;margin: 0px ; margin-left: 4px&quot;&gt;+ photoContent&lt;/p&gt;&lt;p style=&quot;margin: 0px ; margin-left: 4px&quot;&gt;+ photoLink&lt;/p&gt;&lt;hr size=&quot;1&quot;&gt;&lt;p style=&quot;margin: 0px ; margin-left: 4px&quot;&gt;+ getUserPhoto()&lt;/p&gt;&lt;p style=&quot;margin: 0px ; margin-left: 4px&quot;&gt;+ uploadUserPhoto()&lt;/p&gt;&lt;p style=&quot;margin: 0px ; margin-left: 4px&quot;&gt;+ deleteUserPhoto()&lt;/p&gt;" style="verticalAlign=top;align=left;overflow=fill;fontSize=12;fontFamily=Helvetica;html=1;rounded=0;gradientColor=none;" parent="1" vertex="1">
          <mxGeometry x="-3006" y="-560.5" width="152.5" height="151" as="geometry" />
        </mxCell>
        <mxCell id="xDkKRqTIg5tSnUdjJHh7-14" style="edgeStyle=orthogonalEdgeStyle;rounded=0;orthogonalLoop=1;jettySize=auto;html=1;exitX=1;exitY=0.75;exitDx=0;exitDy=0;entryX=0;entryY=0.25;entryDx=0;entryDy=0;endArrow=none;endFill=0;endSize=16;" parent="1" source="zYsDCc8FKc2eDyEw-r5s-3" target="xDkKRqTIg5tSnUdjJHh7-7" edge="1">
          <mxGeometry relative="1" as="geometry" />
        </mxCell>
        <mxCell id="zDMqwwzG-wdOb1bjjmcq-7" value="has" style="text;html=1;align=center;verticalAlign=middle;resizable=0;points=[];autosize=1;strokeColor=none;fillColor=none;" parent="1" vertex="1">
          <mxGeometry x="-3844" y="-605" width="29" height="18" as="geometry" />
        </mxCell>
        <mxCell id="xDkKRqTIg5tSnUdjJHh7-16" style="edgeStyle=orthogonalEdgeStyle;rounded=0;orthogonalLoop=1;jettySize=auto;html=1;exitX=0.5;exitY=1;exitDx=0;exitDy=0;entryX=0.5;entryY=0;entryDx=0;entryDy=0;endArrow=diamondThin;endFill=0;endSize=16;" parent="1" source="zYsDCc8FKc2eDyEw-r5s-3" target="zYsDCc8FKc2eDyEw-r5s-5" edge="1">
          <mxGeometry relative="1" as="geometry" />
        </mxCell>
        <mxCell id="xDkKRqTIg5tSnUdjJHh7-17" style="edgeStyle=orthogonalEdgeStyle;rounded=0;orthogonalLoop=1;jettySize=auto;html=1;exitX=0.5;exitY=1;exitDx=0;exitDy=0;entryX=0.5;entryY=0;entryDx=0;entryDy=0;endArrow=diamondThin;endFill=0;endSize=16;" parent="1" source="zYsDCc8FKc2eDyEw-r5s-3" target="zYsDCc8FKc2eDyEw-r5s-4" edge="1">
          <mxGeometry relative="1" as="geometry" />
        </mxCell>
        <mxCell id="zYsDCc8FKc2eDyEw-r5s-3" value="&lt;p style=&quot;margin: 0px ; margin-top: 4px ; text-align: center&quot;&gt;&lt;b&gt;Document&lt;/b&gt;&lt;/p&gt;&lt;hr size=&quot;1&quot;&gt;&lt;p style=&quot;margin: 0px ; margin-left: 4px&quot;&gt;+ dID&lt;/p&gt;&lt;p style=&quot;margin: 0px ; margin-left: 4px&quot;&gt;+ name&lt;/p&gt;&lt;p style=&quot;margin: 0px ; margin-left: 4px&quot;&gt;+ content&lt;/p&gt;&lt;p style=&quot;margin: 0px ; margin-left: 4px&quot;&gt;+ parent_project&lt;/p&gt;&lt;p style=&quot;margin: 0px ; margin-left: 4px&quot;&gt;+ create_user&lt;/p&gt;&lt;p style=&quot;margin: 0px ; margin-left: 4px&quot;&gt;+ create_time&lt;/p&gt;&lt;p style=&quot;margin: 0px ; margin-left: 4px&quot;&gt;+ modify_time&lt;/p&gt;&lt;p style=&quot;margin: 0px ; margin-left: 4px&quot;&gt;+ status&lt;/p&gt;&lt;hr size=&quot;1&quot;&gt;&lt;p style=&quot;margin: 0px ; margin-left: 4px&quot;&gt;&lt;br&gt;&lt;/p&gt;" style="verticalAlign=top;align=left;overflow=fill;fontSize=12;fontFamily=Helvetica;html=1;rounded=0;gradientColor=none;" parent="1" vertex="1">
          <mxGeometry x="-4151" y="246" width="152.5" height="176" as="geometry" />
        </mxCell>
        <mxCell id="zYsDCc8FKc2eDyEw-r5s-4" value="&lt;p style=&quot;margin: 0px ; margin-top: 4px ; text-align: center&quot;&gt;&lt;b&gt;Image&lt;/b&gt;&lt;/p&gt;&lt;hr size=&quot;1&quot;&gt;&lt;p style=&quot;margin: 0px ; margin-left: 4px&quot;&gt;+ imageID&lt;/p&gt;&lt;p style=&quot;margin: 0px ; margin-left: 4px&quot;&gt;+ user&lt;/p&gt;&lt;p style=&quot;margin: 0px ; margin-left: 4px&quot;&gt;+ file_path&lt;/p&gt;&lt;p style=&quot;margin: 0px ; margin-left: 4px&quot;&gt;+ file_name&lt;/p&gt;&lt;p style=&quot;margin: 0px ; margin-left: 4px&quot;&gt;+ remark&lt;/p&gt;&lt;p style=&quot;margin: 0px ; margin-left: 4px&quot;&gt;+ create_time&lt;/p&gt;&lt;p style=&quot;margin: 0px ; margin-left: 4px&quot;&gt;+ modify_time&lt;/p&gt;&lt;hr size=&quot;1&quot;&gt;&lt;p style=&quot;margin: 0px ; margin-left: 4px&quot;&gt;&lt;br&gt;&lt;/p&gt;" style="verticalAlign=top;align=left;overflow=fill;fontSize=12;fontFamily=Helvetica;html=1;rounded=0;gradientColor=none;" parent="1" vertex="1">
          <mxGeometry x="-3932" y="534" width="152.5" height="162" as="geometry" />
        </mxCell>
        <mxCell id="zYsDCc8FKc2eDyEw-r5s-5" value="&lt;p style=&quot;margin: 0px ; margin-top: 4px ; text-align: center&quot;&gt;&lt;b&gt;Attachment&lt;/b&gt;&lt;/p&gt;&lt;hr size=&quot;1&quot;&gt;&lt;p style=&quot;margin: 0px ; margin-left: 4px&quot;&gt;+ attachID&lt;/p&gt;&lt;p style=&quot;margin: 0px ; margin-left: 4px&quot;&gt;+ file_name&lt;/p&gt;&lt;p style=&quot;margin: 0px ; margin-left: 4px&quot;&gt;+ file_path&lt;/p&gt;&lt;p style=&quot;margin: 0px ; margin-left: 4px&quot;&gt;+ file_size&lt;/p&gt;&lt;p style=&quot;margin: 0px ; margin-left: 4px&quot;&gt;+ user&lt;/p&gt;&lt;p style=&quot;margin: 0px ; margin-left: 4px&quot;&gt;+ create_time&lt;/p&gt;&lt;p style=&quot;margin: 0px ; margin-left: 4px&quot;&gt;+ modify_time&lt;/p&gt;&lt;hr size=&quot;1&quot;&gt;&lt;p style=&quot;margin: 0px ; margin-left: 4px&quot;&gt;&lt;br&gt;&lt;/p&gt;" style="verticalAlign=top;align=left;overflow=fill;fontSize=12;fontFamily=Helvetica;html=1;rounded=0;gradientColor=none;" parent="1" vertex="1">
          <mxGeometry x="-4151" y="534" width="152.5" height="162" as="geometry" />
        </mxCell>
        <mxCell id="xDkKRqTIg5tSnUdjJHh7-1" style="edgeStyle=orthogonalEdgeStyle;rounded=0;orthogonalLoop=1;jettySize=auto;html=1;exitX=1;exitY=0.5;exitDx=0;exitDy=0;entryX=0.5;entryY=0;entryDx=0;entryDy=0;endArrow=diamondThin;endFill=0;endSize=16;" parent="1" source="zYsDCc8FKc2eDyEw-r5s-1" target="zYsDCc8FKc2eDyEw-r5s-1" edge="1">
          <mxGeometry relative="1" as="geometry">
            <Array as="points">
              <mxPoint x="-3489" y="289" />
              <mxPoint x="-3489" y="122" />
              <mxPoint x="-3659" y="122" />
            </Array>
          </mxGeometry>
        </mxCell>
        <mxCell id="xDkKRqTIg5tSnUdjJHh7-2" value="parentProject" style="text;html=1;align=center;verticalAlign=middle;resizable=0;points=[];autosize=1;strokeColor=none;fillColor=none;" parent="1" vertex="1">
          <mxGeometry x="-3656.25" y="165" width="81" height="18" as="geometry" />
        </mxCell>
        <mxCell id="xDkKRqTIg5tSnUdjJHh7-3" value="0..1" style="text;html=1;align=center;verticalAlign=middle;resizable=0;points=[];autosize=1;strokeColor=none;fillColor=none;" parent="1" vertex="1">
          <mxGeometry x="-3692" y="165" width="30" height="18" as="geometry" />
        </mxCell>
        <mxCell id="xDkKRqTIg5tSnUdjJHh7-4" value="nestedProject" style="text;html=1;align=center;verticalAlign=middle;resizable=0;points=[];autosize=1;strokeColor=none;fillColor=none;" parent="1" vertex="1">
          <mxGeometry x="-3576.25" y="291" width="84" height="18" as="geometry" />
        </mxCell>
        <mxCell id="xDkKRqTIg5tSnUdjJHh7-6" value="0..*" style="text;html=1;align=center;verticalAlign=middle;resizable=0;points=[];autosize=1;strokeColor=none;fillColor=none;" parent="1" vertex="1">
          <mxGeometry x="-3555" y="266" width="28" height="18" as="geometry" />
        </mxCell>
        <mxCell id="xDkKRqTIg5tSnUdjJHh7-7" value="&lt;p style=&quot;margin: 0px ; margin-top: 4px ; text-align: center&quot;&gt;&lt;b&gt;DocumentType&lt;/b&gt;&lt;/p&gt;&lt;hr size=&quot;1&quot;&gt;&lt;p style=&quot;margin: 0px ; margin-left: 4px&quot;&gt;+ name&lt;/p&gt;&lt;p style=&quot;margin: 0px ; margin-left: 4px&quot;&gt;+ type&lt;/p&gt;&lt;p style=&quot;margin: 0px ; margin-left: 4px&quot;&gt;+ description&lt;/p&gt;&lt;hr size=&quot;1&quot;&gt;&lt;p style=&quot;margin: 0px ; margin-left: 4px&quot;&gt;&lt;br&gt;&lt;/p&gt;" style="verticalAlign=top;align=left;overflow=fill;fontSize=12;fontFamily=Helvetica;html=1;rounded=0;gradientColor=none;" parent="1" vertex="1">
          <mxGeometry x="-3948" y="352" width="152.5" height="102.5" as="geometry" />
        </mxCell>
        <mxCell id="xDkKRqTIg5tSnUdjJHh7-21" value="" style="group" parent="1" connectable="0" vertex="1">
          <mxGeometry x="-4503.5" y="1343" width="122.5" height="60" as="geometry" />
        </mxCell>
        <mxCell id="xDkKRqTIg5tSnUdjJHh7-22" value="" style="verticalLabelPosition=bottom;verticalAlign=top;html=1;shape=mxgraph.basic.layered_rect;dx=10;outlineConnect=0;" parent="xDkKRqTIg5tSnUdjJHh7-21" vertex="1">
          <mxGeometry width="122.5" height="60" as="geometry" />
        </mxCell>
        <mxCell id="xDkKRqTIg5tSnUdjJHh7-23" value="Clarance&#39;s Public&lt;br&gt;Project" style="text;html=1;align=center;verticalAlign=middle;resizable=0;points=[];autosize=1;strokeColor=none;fillColor=none;" parent="xDkKRqTIg5tSnUdjJHh7-21" vertex="1">
          <mxGeometry x="5.5" y="9" width="102" height="32" as="geometry" />
        </mxCell>
        <mxCell id="xDkKRqTIg5tSnUdjJHh7-32" value="Doc1" style="shape=note;size=20;whiteSpace=wrap;html=1;" parent="1" vertex="1">
          <mxGeometry x="-4664" y="1491" width="66" height="76" as="geometry" />
        </mxCell>
        <mxCell id="xDkKRqTIg5tSnUdjJHh7-33" value="Table1" style="shape=note;size=20;whiteSpace=wrap;html=1;" parent="1" vertex="1">
          <mxGeometry x="-4329" y="1491" width="66" height="76" as="geometry" />
        </mxCell>
        <mxCell id="xDkKRqTIg5tSnUdjJHh7-34" value="Table2" style="shape=note;size=20;whiteSpace=wrap;html=1;" parent="1" vertex="1">
          <mxGeometry x="-4440" y="1491" width="66" height="76" as="geometry" />
        </mxCell>
        <mxCell id="xDkKRqTIg5tSnUdjJHh7-35" value="Doc2" style="shape=note;size=20;whiteSpace=wrap;html=1;" parent="1" vertex="1">
          <mxGeometry x="-4561" y="1491" width="66" height="76" as="geometry" />
        </mxCell>
        <mxCell id="xDkKRqTIg5tSnUdjJHh7-36" style="edgeStyle=orthogonalEdgeStyle;rounded=0;orthogonalLoop=1;jettySize=auto;html=1;exitX=0;exitY=0;exitDx=66.25;exitDy=60;exitPerimeter=0;endArrow=none;endFill=0;endSize=16;entryX=0.5;entryY=0;entryDx=0;entryDy=0;entryPerimeter=0;" parent="1" source="xDkKRqTIg5tSnUdjJHh7-22" target="xDkKRqTIg5tSnUdjJHh7-32" edge="1">
          <mxGeometry relative="1" as="geometry">
            <mxPoint x="-4611.941215963925" y="1472.1764849494484" as="targetPoint" />
          </mxGeometry>
        </mxCell>
        <mxCell id="xDkKRqTIg5tSnUdjJHh7-37" style="edgeStyle=orthogonalEdgeStyle;rounded=0;orthogonalLoop=1;jettySize=auto;html=1;exitX=0;exitY=0;exitDx=66.25;exitDy=60;exitPerimeter=0;entryX=0;entryY=0;entryDx=23;entryDy=0;entryPerimeter=0;endArrow=none;endFill=0;endSize=16;" parent="1" source="xDkKRqTIg5tSnUdjJHh7-22" target="xDkKRqTIg5tSnUdjJHh7-35" edge="1">
          <mxGeometry relative="1" as="geometry" />
        </mxCell>
        <mxCell id="xDkKRqTIg5tSnUdjJHh7-38" style="edgeStyle=orthogonalEdgeStyle;rounded=0;orthogonalLoop=1;jettySize=auto;html=1;exitX=0;exitY=0;exitDx=66.25;exitDy=60;exitPerimeter=0;entryX=0.5;entryY=0;entryDx=0;entryDy=0;entryPerimeter=0;endArrow=none;endFill=0;endSize=16;" parent="1" source="xDkKRqTIg5tSnUdjJHh7-22" target="xDkKRqTIg5tSnUdjJHh7-34" edge="1">
          <mxGeometry relative="1" as="geometry" />
        </mxCell>
        <mxCell id="xDkKRqTIg5tSnUdjJHh7-39" style="edgeStyle=orthogonalEdgeStyle;rounded=0;orthogonalLoop=1;jettySize=auto;html=1;exitX=0;exitY=0;exitDx=66.25;exitDy=60;exitPerimeter=0;entryX=0.5;entryY=0;entryDx=0;entryDy=0;entryPerimeter=0;endArrow=none;endFill=0;endSize=16;" parent="1" source="xDkKRqTIg5tSnUdjJHh7-22" target="xDkKRqTIg5tSnUdjJHh7-33" edge="1">
          <mxGeometry relative="1" as="geometry" />
        </mxCell>
        <mxCell id="xDkKRqTIg5tSnUdjJHh7-43" value="" style="group" parent="1" connectable="0" vertex="1">
          <mxGeometry x="-4073" y="1343" width="122.5" height="60" as="geometry" />
        </mxCell>
        <mxCell id="xDkKRqTIg5tSnUdjJHh7-44" value="" style="verticalLabelPosition=bottom;verticalAlign=top;html=1;shape=mxgraph.basic.layered_rect;dx=10;outlineConnect=0;" parent="xDkKRqTIg5tSnUdjJHh7-43" vertex="1">
          <mxGeometry width="122.5" height="60" as="geometry" />
        </mxCell>
        <mxCell id="xDkKRqTIg5tSnUdjJHh7-45" value="Seline&#39;s Private&lt;br&gt;Project" style="text;html=1;align=center;verticalAlign=middle;resizable=0;points=[];autosize=1;strokeColor=none;fillColor=none;" parent="xDkKRqTIg5tSnUdjJHh7-43" vertex="1">
          <mxGeometry x="10.5" y="9" width="92" height="32" as="geometry" />
        </mxCell>
        <mxCell id="xDkKRqTIg5tSnUdjJHh7-46" value="Doc1" style="shape=note;size=20;whiteSpace=wrap;html=1;" parent="1" vertex="1">
          <mxGeometry x="-4233.5" y="1491" width="66" height="76" as="geometry" />
        </mxCell>
        <mxCell id="xDkKRqTIg5tSnUdjJHh7-47" value="Table1" style="shape=note;size=20;whiteSpace=wrap;html=1;" parent="1" vertex="1">
          <mxGeometry x="-3898.5" y="1491" width="66" height="76" as="geometry" />
        </mxCell>
        <mxCell id="xDkKRqTIg5tSnUdjJHh7-48" value="Table2" style="shape=note;size=20;whiteSpace=wrap;html=1;" parent="1" vertex="1">
          <mxGeometry x="-4009.5" y="1491" width="66" height="76" as="geometry" />
        </mxCell>
        <mxCell id="xDkKRqTIg5tSnUdjJHh7-49" value="Doc2" style="shape=note;size=20;whiteSpace=wrap;html=1;" parent="1" vertex="1">
          <mxGeometry x="-4130.5" y="1491" width="66" height="76" as="geometry" />
        </mxCell>
        <mxCell id="xDkKRqTIg5tSnUdjJHh7-50" style="edgeStyle=orthogonalEdgeStyle;rounded=0;orthogonalLoop=1;jettySize=auto;html=1;exitX=0;exitY=0;exitDx=66.25;exitDy=60;exitPerimeter=0;endArrow=none;endFill=0;endSize=16;entryX=0.5;entryY=0;entryDx=0;entryDy=0;entryPerimeter=0;" parent="1" source="xDkKRqTIg5tSnUdjJHh7-44" target="xDkKRqTIg5tSnUdjJHh7-46" edge="1">
          <mxGeometry relative="1" as="geometry">
            <mxPoint x="-4181.441215963925" y="1472.1764849494484" as="targetPoint" />
          </mxGeometry>
        </mxCell>
        <mxCell id="xDkKRqTIg5tSnUdjJHh7-51" style="edgeStyle=orthogonalEdgeStyle;rounded=0;orthogonalLoop=1;jettySize=auto;html=1;exitX=0;exitY=0;exitDx=66.25;exitDy=60;exitPerimeter=0;entryX=0;entryY=0;entryDx=23;entryDy=0;entryPerimeter=0;endArrow=none;endFill=0;endSize=16;" parent="1" source="xDkKRqTIg5tSnUdjJHh7-44" target="xDkKRqTIg5tSnUdjJHh7-49" edge="1">
          <mxGeometry relative="1" as="geometry" />
        </mxCell>
        <mxCell id="xDkKRqTIg5tSnUdjJHh7-52" style="edgeStyle=orthogonalEdgeStyle;rounded=0;orthogonalLoop=1;jettySize=auto;html=1;exitX=0;exitY=0;exitDx=66.25;exitDy=60;exitPerimeter=0;entryX=0.5;entryY=0;entryDx=0;entryDy=0;entryPerimeter=0;endArrow=none;endFill=0;endSize=16;" parent="1" source="xDkKRqTIg5tSnUdjJHh7-44" target="xDkKRqTIg5tSnUdjJHh7-48" edge="1">
          <mxGeometry relative="1" as="geometry" />
        </mxCell>
        <mxCell id="xDkKRqTIg5tSnUdjJHh7-53" style="edgeStyle=orthogonalEdgeStyle;rounded=0;orthogonalLoop=1;jettySize=auto;html=1;exitX=0;exitY=0;exitDx=66.25;exitDy=60;exitPerimeter=0;entryX=0.5;entryY=0;entryDx=0;entryDy=0;entryPerimeter=0;endArrow=none;endFill=0;endSize=16;" parent="1" source="xDkKRqTIg5tSnUdjJHh7-44" target="xDkKRqTIg5tSnUdjJHh7-47" edge="1">
          <mxGeometry relative="1" as="geometry" />
        </mxCell>
        <mxCell id="xDkKRqTIg5tSnUdjJHh7-55" value="" style="endArrow=none;html=1;rounded=0;endSize=16;exitX=0.25;exitY=0.1;exitDx=0;exitDy=0;exitPerimeter=0;entryX=0.5;entryY=1;entryDx=0;entryDy=0;entryPerimeter=0;" parent="1" source="xDkKRqTIg5tSnUdjJHh7-40" target="xDkKRqTIg5tSnUdjJHh7-32" edge="1">
          <mxGeometry width="50" height="50" relative="1" as="geometry">
            <mxPoint x="-4152" y="1599" as="sourcePoint" />
            <mxPoint x="-4102" y="1549" as="targetPoint" />
          </mxGeometry>
        </mxCell>
        <mxCell id="xDkKRqTIg5tSnUdjJHh7-56" value="" style="endArrow=none;html=1;rounded=0;endSize=16;exitX=0.25;exitY=0.1;exitDx=0;exitDy=0;exitPerimeter=0;entryX=0.5;entryY=1;entryDx=0;entryDy=0;entryPerimeter=0;" parent="1" source="xDkKRqTIg5tSnUdjJHh7-40" target="xDkKRqTIg5tSnUdjJHh7-35" edge="1">
          <mxGeometry width="50" height="50" relative="1" as="geometry">
            <mxPoint x="-4284" y="1749" as="sourcePoint" />
            <mxPoint x="-4621" y="1576.9999999999995" as="targetPoint" />
          </mxGeometry>
        </mxCell>
        <mxCell id="xDkKRqTIg5tSnUdjJHh7-57" value="" style="endArrow=none;html=1;rounded=0;endSize=16;exitX=0.25;exitY=0.1;exitDx=0;exitDy=0;exitPerimeter=0;entryX=0.5;entryY=1;entryDx=0;entryDy=0;entryPerimeter=0;" parent="1" source="xDkKRqTIg5tSnUdjJHh7-40" target="xDkKRqTIg5tSnUdjJHh7-34" edge="1">
          <mxGeometry width="50" height="50" relative="1" as="geometry">
            <mxPoint x="-4274" y="1759" as="sourcePoint" />
            <mxPoint x="-4611" y="1586.9999999999995" as="targetPoint" />
          </mxGeometry>
        </mxCell>
        <mxCell id="xDkKRqTIg5tSnUdjJHh7-58" value="" style="endArrow=none;html=1;rounded=0;endSize=16;exitX=0.25;exitY=0.1;exitDx=0;exitDy=0;exitPerimeter=0;entryX=0.5;entryY=1;entryDx=0;entryDy=0;entryPerimeter=0;" parent="1" source="xDkKRqTIg5tSnUdjJHh7-40" target="xDkKRqTIg5tSnUdjJHh7-33" edge="1">
          <mxGeometry width="50" height="50" relative="1" as="geometry">
            <mxPoint x="-4264" y="1769" as="sourcePoint" />
            <mxPoint x="-4601" y="1596.9999999999995" as="targetPoint" />
          </mxGeometry>
        </mxCell>
        <mxCell id="xDkKRqTIg5tSnUdjJHh7-59" value="Acess, but can not modify" style="text;html=1;align=center;verticalAlign=middle;resizable=0;points=[];autosize=1;strokeColor=none;fillColor=none;" parent="1" vertex="1">
          <mxGeometry x="-4488" y="1624" width="148" height="18" as="geometry" />
        </mxCell>
        <mxCell id="xDkKRqTIg5tSnUdjJHh7-60" value="" style="endArrow=none;html=1;rounded=0;endSize=16;entryX=0.5;entryY=1;entryDx=0;entryDy=0;entryPerimeter=0;exitX=0.75;exitY=0.1;exitDx=0;exitDy=0;exitPerimeter=0;dashed=1;" parent="1" source="xDkKRqTIg5tSnUdjJHh7-40" target="xDkKRqTIg5tSnUdjJHh7-46" edge="1">
          <mxGeometry width="50" height="50" relative="1" as="geometry">
            <mxPoint x="-4198" y="1728" as="sourcePoint" />
            <mxPoint x="-4286" y="1576.9999999999995" as="targetPoint" />
          </mxGeometry>
        </mxCell>
        <mxCell id="xDkKRqTIg5tSnUdjJHh7-61" value="" style="endArrow=none;html=1;rounded=0;endSize=16;entryX=0.5;entryY=1;entryDx=0;entryDy=0;entryPerimeter=0;exitX=0.75;exitY=0.1;exitDx=0;exitDy=0;exitPerimeter=0;dashed=1;" parent="1" source="xDkKRqTIg5tSnUdjJHh7-40" target="xDkKRqTIg5tSnUdjJHh7-49" edge="1">
          <mxGeometry width="50" height="50" relative="1" as="geometry">
            <mxPoint x="-4216.5" y="1749" as="sourcePoint" />
            <mxPoint x="-4190.5" y="1576.9999999999995" as="targetPoint" />
          </mxGeometry>
        </mxCell>
        <mxCell id="xDkKRqTIg5tSnUdjJHh7-62" value="" style="endArrow=none;html=1;rounded=0;endSize=16;entryX=0.5;entryY=1;entryDx=0;entryDy=0;entryPerimeter=0;exitX=0.75;exitY=0.1;exitDx=0;exitDy=0;exitPerimeter=0;dashed=1;" parent="1" source="xDkKRqTIg5tSnUdjJHh7-40" target="xDkKRqTIg5tSnUdjJHh7-48" edge="1">
          <mxGeometry width="50" height="50" relative="1" as="geometry">
            <mxPoint x="-4216.5" y="1749" as="sourcePoint" />
            <mxPoint x="-4087.5" y="1576.9999999999995" as="targetPoint" />
          </mxGeometry>
        </mxCell>
        <mxCell id="xDkKRqTIg5tSnUdjJHh7-63" value="" style="endArrow=none;html=1;rounded=0;endSize=16;entryX=0.5;entryY=1;entryDx=0;entryDy=0;entryPerimeter=0;exitX=0.75;exitY=0.1;exitDx=0;exitDy=0;exitPerimeter=0;dashed=1;" parent="1" source="xDkKRqTIg5tSnUdjJHh7-40" target="xDkKRqTIg5tSnUdjJHh7-47" edge="1">
          <mxGeometry width="50" height="50" relative="1" as="geometry">
            <mxPoint x="-4206.5" y="1759" as="sourcePoint" />
            <mxPoint x="-4077.5" y="1586.9999999999995" as="targetPoint" />
          </mxGeometry>
        </mxCell>
        <mxCell id="xDkKRqTIg5tSnUdjJHh7-64" value="Cannot access" style="text;html=1;align=center;verticalAlign=middle;resizable=0;points=[];autosize=1;strokeColor=none;fillColor=none;" parent="1" vertex="1">
          <mxGeometry x="-4134" y="1624" width="89" height="18" as="geometry" />
        </mxCell>
        <mxCell id="xDkKRqTIg5tSnUdjJHh7-68" value="" style="group" parent="1" connectable="0" vertex="1">
          <mxGeometry x="-4267" y="1761" width="41" height="80" as="geometry" />
        </mxCell>
        <mxCell id="xDkKRqTIg5tSnUdjJHh7-66" value="Actor" style="shape=umlActor;verticalLabelPosition=bottom;verticalAlign=top;html=1;outlineConnect=0;fillColor=default;" parent="xDkKRqTIg5tSnUdjJHh7-68" vertex="1">
          <mxGeometry x="7" width="30" height="60" as="geometry" />
        </mxCell>
        <mxCell id="xDkKRqTIg5tSnUdjJHh7-67" value="Owen" style="text;html=1;align=center;verticalAlign=middle;resizable=0;points=[];autosize=1;strokeColor=none;fillColor=default;" parent="xDkKRqTIg5tSnUdjJHh7-68" vertex="1">
          <mxGeometry y="62" width="41" height="18" as="geometry" />
        </mxCell>
        <mxCell id="xDkKRqTIg5tSnUdjJHh7-69" value="" style="group" parent="1" connectable="0" vertex="1">
          <mxGeometry x="-4254" y="1232" width="41" height="80" as="geometry" />
        </mxCell>
        <mxCell id="xDkKRqTIg5tSnUdjJHh7-70" value="Actor" style="shape=umlActor;verticalLabelPosition=bottom;verticalAlign=top;html=1;outlineConnect=0;fillColor=default;" parent="xDkKRqTIg5tSnUdjJHh7-69" vertex="1">
          <mxGeometry x="7" width="30" height="60" as="geometry" />
        </mxCell>
        <mxCell id="xDkKRqTIg5tSnUdjJHh7-71" value="Owen" style="text;html=1;align=center;verticalAlign=middle;resizable=0;points=[];autosize=1;strokeColor=none;fillColor=default;" parent="xDkKRqTIg5tSnUdjJHh7-69" vertex="1">
          <mxGeometry y="62" width="41" height="18" as="geometry" />
        </mxCell>
        <mxCell id="xDkKRqTIg5tSnUdjJHh7-75" value="" style="endArrow=none;html=1;rounded=0;endSize=16;entryX=0;entryY=0.3333333333333333;entryDx=0;entryDy=0;entryPerimeter=0;exitX=1;exitY=0.3333333333333333;exitDx=0;exitDy=0;exitPerimeter=0;dashed=1;dashPattern=1 1;" parent="1" source="xDkKRqTIg5tSnUdjJHh7-72" target="xDkKRqTIg5tSnUdjJHh7-70" edge="1">
          <mxGeometry width="50" height="50" relative="1" as="geometry">
            <mxPoint x="-4216.5" y="1749" as="sourcePoint" />
            <mxPoint x="-4190.5" y="1576.9999999999995" as="targetPoint" />
          </mxGeometry>
        </mxCell>
        <mxCell id="xDkKRqTIg5tSnUdjJHh7-76" value="" style="endArrow=none;html=1;rounded=0;endSize=16;entryX=1;entryY=0.3333333333333333;entryDx=0;entryDy=0;entryPerimeter=0;exitX=0;exitY=0.3333333333333333;exitDx=0;exitDy=0;exitPerimeter=0;dashed=1;strokeColor=default;dashPattern=1 1;" parent="1" source="xDkKRqTIg5tSnUdjJHh7-73" target="xDkKRqTIg5tSnUdjJHh7-70" edge="1">
          <mxGeometry width="50" height="50" relative="1" as="geometry">
            <mxPoint x="-4422" y="1310" as="sourcePoint" />
            <mxPoint x="-4237" y="1261.9999999999995" as="targetPoint" />
          </mxGeometry>
        </mxCell>
        <mxCell id="xDkKRqTIg5tSnUdjJHh7-77" value="collaborator" style="text;html=1;align=center;verticalAlign=middle;resizable=0;points=[];autosize=1;strokeColor=none;fillColor=none;" parent="1" vertex="1">
          <mxGeometry x="-4394" y="1254" width="72" height="18" as="geometry" />
        </mxCell>
        <mxCell id="xDkKRqTIg5tSnUdjJHh7-78" value="collaborator" style="text;html=1;align=center;verticalAlign=middle;resizable=0;points=[];autosize=1;strokeColor=none;fillColor=none;" parent="1" vertex="1">
          <mxGeometry x="-4145" y="1254" width="72" height="18" as="geometry" />
        </mxCell>
        <mxCell id="xDkKRqTIg5tSnUdjJHh7-79" value="" style="group" parent="1" connectable="0" vertex="1">
          <mxGeometry x="-4264" y="1638" width="43" height="82" as="geometry" />
        </mxCell>
        <mxCell id="xDkKRqTIg5tSnUdjJHh7-40" value="Actor" style="shape=umlActor;verticalLabelPosition=bottom;verticalAlign=top;html=1;" parent="xDkKRqTIg5tSnUdjJHh7-79" vertex="1">
          <mxGeometry x="6.5" width="30" height="60" as="geometry" />
        </mxCell>
        <mxCell id="xDkKRqTIg5tSnUdjJHh7-65" value="Visitor" style="text;html=1;align=center;verticalAlign=middle;resizable=0;points=[];autosize=1;strokeColor=none;fillColor=default;" parent="xDkKRqTIg5tSnUdjJHh7-79" vertex="1">
          <mxGeometry y="64" width="43" height="18" as="geometry" />
        </mxCell>
        <mxCell id="xDkKRqTIg5tSnUdjJHh7-81" value="" style="endArrow=none;html=1;rounded=0;endSize=16;exitX=0;exitY=0.3333333333333333;exitDx=0;exitDy=0;exitPerimeter=0;entryX=0.5;entryY=1;entryDx=0;entryDy=0;entryPerimeter=0;strokeWidth=2;" parent="1" source="xDkKRqTIg5tSnUdjJHh7-66" target="xDkKRqTIg5tSnUdjJHh7-32" edge="1">
          <mxGeometry width="50" height="50" relative="1" as="geometry">
            <mxPoint x="-4289" y="1773.0000000000005" as="sourcePoint" />
            <mxPoint x="-4670" y="1696.0000000000005" as="targetPoint" />
          </mxGeometry>
        </mxCell>
        <mxCell id="xDkKRqTIg5tSnUdjJHh7-82" value="" style="endArrow=none;html=1;rounded=0;endSize=16;exitX=1;exitY=0.3333333333333333;exitDx=0;exitDy=0;exitPerimeter=0;entryX=0.5;entryY=1;entryDx=0;entryDy=0;entryPerimeter=0;strokeWidth=2;" parent="1" source="xDkKRqTIg5tSnUdjJHh7-66" target="xDkKRqTIg5tSnUdjJHh7-47" edge="1">
          <mxGeometry width="50" height="50" relative="1" as="geometry">
            <mxPoint x="-3977" y="1814" as="sourcePoint" />
            <mxPoint x="-4348" y="1600.0000000000005" as="targetPoint" />
          </mxGeometry>
        </mxCell>
        <mxCell id="xDkKRqTIg5tSnUdjJHh7-84" value="Can access and modify" style="text;html=1;align=center;verticalAlign=middle;resizable=0;points=[];autosize=1;strokeColor=none;fillColor=none;" parent="1" vertex="1">
          <mxGeometry x="-4529" y="1705" width="135" height="18" as="geometry" />
        </mxCell>
        <mxCell id="xDkKRqTIg5tSnUdjJHh7-85" value="Can access and modify" style="text;html=1;align=center;verticalAlign=middle;resizable=0;points=[];autosize=1;strokeColor=none;fillColor=none;" parent="1" vertex="1">
          <mxGeometry x="-4090" y="1702" width="135" height="18" as="geometry" />
        </mxCell>
        <mxCell id="zDMqwwzG-wdOb1bjjmcq-15" style="edgeStyle=orthogonalEdgeStyle;rounded=0;orthogonalLoop=1;jettySize=auto;html=1;exitX=0.5;exitY=1;exitDx=0;exitDy=0;entryX=0.5;entryY=0;entryDx=0;entryDy=0;endArrow=diamondThin;endFill=0;endSize=16;" parent="1" source="zDMqwwzG-wdOb1bjjmcq-17" target="zDMqwwzG-wdOb1bjjmcq-19" edge="1">
          <mxGeometry relative="1" as="geometry" />
        </mxCell>
        <mxCell id="1D7haafFMPJM-0chtQWc-2" value="Actor" style="shape=umlActor;verticalLabelPosition=bottom;verticalAlign=top;html=1;fontSize=17;strokeWidth=2;" vertex="1" parent="1">
          <mxGeometry x="-4639.5" y="-2775" width="30" height="60" as="geometry" />
        </mxCell>
        <mxCell id="zDMqwwzG-wdOb1bjjmcq-16" style="edgeStyle=orthogonalEdgeStyle;rounded=0;orthogonalLoop=1;jettySize=auto;html=1;exitX=0.5;exitY=1;exitDx=0;exitDy=0;entryX=0.5;entryY=0;entryDx=0;entryDy=0;endArrow=diamondThin;endFill=0;endSize=16;" parent="1" source="zDMqwwzG-wdOb1bjjmcq-17" target="zDMqwwzG-wdOb1bjjmcq-18" edge="1">
          <mxGeometry relative="1" as="geometry" />
        </mxCell>
        <mxCell id="1D7haafFMPJM-0chtQWc-3" value="&lt;font style=&quot;font-size: 17px&quot;&gt;:User&lt;/font&gt;" style="shape=umlLifeline;perimeter=lifelinePerimeter;whiteSpace=wrap;html=1;container=1;collapsible=0;recursiveResize=0;outlineConnect=0;fontSize=10;strokeWidth=2;" vertex="1" parent="1">
          <mxGeometry x="-4691" y="-2710" width="133" height="913" as="geometry" />
        </mxCell>
        <mxCell id="1D7haafFMPJM-0chtQWc-4" value="" style="html=1;points=[];perimeter=orthogonalPerimeter;fontSize=10;strokeWidth=2;" vertex="1" parent="1D7haafFMPJM-0chtQWc-3">
          <mxGeometry x="61.5" y="50" width="10" height="770" as="geometry" />
        </mxCell>
        <mxCell id="1D7haafFMPJM-0chtQWc-5" value="User name &amp;amp; password" style="html=1;verticalAlign=bottom;endArrow=open;rounded=0;fontSize=15;endSize=10;endFill=0;" edge="1" parent="1D7haafFMPJM-0chtQWc-3" target="1D7haafFMPJM-0chtQWc-7">
          <mxGeometry relative="1" as="geometry">
            <mxPoint x="71.5" y="93" as="sourcePoint" />
            <mxPoint x="141.5" y="93" as="targetPoint" />
          </mxGeometry>
        </mxCell>
        <mxCell id="zDMqwwzG-wdOb1bjjmcq-17" value="&lt;p style=&quot;margin: 0px ; margin-top: 4px ; text-align: center&quot;&gt;&lt;b&gt;Document&lt;/b&gt;&lt;/p&gt;&lt;hr size=&quot;1&quot;&gt;&lt;p style=&quot;margin: 0px ; margin-left: 4px&quot;&gt;+ dID&lt;/p&gt;&lt;p style=&quot;margin: 0px ; margin-left: 4px&quot;&gt;+ name&lt;/p&gt;&lt;p style=&quot;margin: 0px ; margin-left: 4px&quot;&gt;+ content&lt;/p&gt;&lt;p style=&quot;margin: 0px ; margin-left: 4px&quot;&gt;+ parent_project&lt;/p&gt;&lt;p style=&quot;margin: 0px ; margin-left: 4px&quot;&gt;+ create_user&lt;/p&gt;&lt;p style=&quot;margin: 0px ; margin-left: 4px&quot;&gt;+ create_time&lt;/p&gt;&lt;p style=&quot;margin: 0px ; margin-left: 4px&quot;&gt;+ modify_time&lt;/p&gt;&lt;p style=&quot;margin: 0px ; margin-left: 4px&quot;&gt;+ status&lt;/p&gt;&lt;hr size=&quot;1&quot;&gt;&lt;p style=&quot;margin: 0px ; margin-left: 4px&quot;&gt;&lt;br&gt;&lt;/p&gt;" style="verticalAlign=top;align=left;overflow=fill;fontSize=12;fontFamily=Helvetica;html=1;rounded=0;gradientColor=none;" parent="1" vertex="1">
          <mxGeometry x="-2998.5" y="450" width="152.5" height="176" as="geometry" />
        </mxCell>
        <mxCell id="1D7haafFMPJM-0chtQWc-7" value="&lt;span style=&quot;font-size: 17px&quot;&gt;:User account server&lt;/span&gt;" style="shape=umlLifeline;perimeter=lifelinePerimeter;whiteSpace=wrap;html=1;container=1;collapsible=0;recursiveResize=0;outlineConnect=0;fontSize=10;strokeWidth=2;" vertex="1" parent="1">
          <mxGeometry x="-4472" y="-2710" width="134" height="913" as="geometry" />
        </mxCell>
        <mxCell id="1D7haafFMPJM-0chtQWc-8" value="" style="html=1;points=[];perimeter=orthogonalPerimeter;fontSize=17;strokeWidth=2;" vertex="1" parent="1D7haafFMPJM-0chtQWc-7">
          <mxGeometry x="61.5" y="91" width="10" height="405" as="geometry" />
        </mxCell>
        <mxCell id="1D7haafFMPJM-0chtQWc-9" value="Verify()" style="edgeStyle=orthogonalEdgeStyle;html=1;align=left;spacingLeft=2;endArrow=none;rounded=0;entryX=1;entryY=0;fontSize=15;endSize=10;startArrow=openThin;startFill=0;endFill=0;" edge="1" parent="1D7haafFMPJM-0chtQWc-7">
          <mxGeometry relative="1" as="geometry">
            <mxPoint x="71.5" y="149" as="sourcePoint" />
            <Array as="points">
              <mxPoint x="101.5" y="149" />
            </Array>
            <mxPoint x="72.5" y="102" as="targetPoint" />
          </mxGeometry>
        </mxCell>
        <mxCell id="1D7haafFMPJM-0chtQWc-12" value="input(profile photo)" style="html=1;verticalAlign=bottom;endArrow=open;rounded=0;fontSize=15;endSize=10;endFill=0;" edge="1" parent="1D7haafFMPJM-0chtQWc-7">
          <mxGeometry relative="1" as="geometry">
            <mxPoint x="-149" y="407" as="sourcePoint" />
            <mxPoint x="252" y="407" as="targetPoint" />
          </mxGeometry>
        </mxCell>
        <mxCell id="1D7haafFMPJM-0chtQWc-38" value="movetoProfilegroup()" style="html=1;verticalAlign=bottom;endArrow=open;rounded=0;fontSize=15;endSize=10;endFill=0;" edge="1" parent="1D7haafFMPJM-0chtQWc-7">
          <mxGeometry relative="1" as="geometry">
            <mxPoint x="-146" y="602" as="sourcePoint" />
            <mxPoint x="67" y="602" as="targetPoint" />
          </mxGeometry>
        </mxCell>
        <mxCell id="zDMqwwzG-wdOb1bjjmcq-18" value="&lt;p style=&quot;margin: 0px ; margin-top: 4px ; text-align: center&quot;&gt;&lt;b&gt;Image&lt;/b&gt;&lt;/p&gt;&lt;hr size=&quot;1&quot;&gt;&lt;p style=&quot;margin: 0px ; margin-left: 4px&quot;&gt;+ imageID&lt;/p&gt;&lt;p style=&quot;margin: 0px ; margin-left: 4px&quot;&gt;+ user&lt;/p&gt;&lt;p style=&quot;margin: 0px ; margin-left: 4px&quot;&gt;+ file_path&lt;/p&gt;&lt;p style=&quot;margin: 0px ; margin-left: 4px&quot;&gt;+ file_name&lt;/p&gt;&lt;p style=&quot;margin: 0px ; margin-left: 4px&quot;&gt;+ remark&lt;/p&gt;&lt;p style=&quot;margin: 0px ; margin-left: 4px&quot;&gt;+ create_time&lt;/p&gt;&lt;p style=&quot;margin: 0px ; margin-left: 4px&quot;&gt;+ modify_time&lt;/p&gt;&lt;hr size=&quot;1&quot;&gt;&lt;p style=&quot;margin: 0px ; margin-left: 4px&quot;&gt;&lt;br&gt;&lt;/p&gt;" style="verticalAlign=top;align=left;overflow=fill;fontSize=12;fontFamily=Helvetica;html=1;rounded=0;gradientColor=none;" parent="1" vertex="1">
          <mxGeometry x="-2825.5" y="726" width="152.5" height="162" as="geometry" />
        </mxCell>
        <mxCell id="1D7haafFMPJM-0chtQWc-13" value="&lt;span style=&quot;font-size: 17px&quot;&gt;:Picture database&lt;/span&gt;" style="shape=umlLifeline;perimeter=lifelinePerimeter;whiteSpace=wrap;html=1;container=1;collapsible=0;recursiveResize=0;outlineConnect=0;fontSize=10;strokeWidth=2;" vertex="1" parent="1">
          <mxGeometry x="-4297" y="-2710" width="156" height="913" as="geometry" />
        </mxCell>
        <mxCell id="snLkROtN8yR4piSJNLJ5-1" value="" style="html=1;points=[];perimeter=orthogonalPerimeter;fontSize=17;strokeWidth=2;" vertex="1" parent="1D7haafFMPJM-0chtQWc-13">
          <mxGeometry x="73" y="399" width="10" height="157" as="geometry" />
        </mxCell>
        <mxCell id="snLkROtN8yR4piSJNLJ5-5" value="profile photo" style="html=1;verticalAlign=bottom;endArrow=none;rounded=0;fontSize=15;endSize=10;endFill=0;dashed=1;startArrow=open;startFill=0;" edge="1" parent="1D7haafFMPJM-0chtQWc-13">
          <mxGeometry relative="1" as="geometry">
            <mxPoint x="299.25" y="625" as="sourcePoint" />
            <mxPoint x="-108.81818181818198" y="625" as="targetPoint" />
          </mxGeometry>
        </mxCell>
        <mxCell id="1D7haafFMPJM-0chtQWc-23" value="check()" style="edgeStyle=orthogonalEdgeStyle;html=1;align=left;spacingLeft=2;endArrow=none;rounded=0;fontSize=15;endSize=10;startArrow=openThin;startFill=0;endFill=0;" edge="1" parent="1D7haafFMPJM-0chtQWc-13">
          <mxGeometry relative="1" as="geometry">
            <mxPoint x="83" y="446" as="sourcePoint" />
            <Array as="points">
              <mxPoint x="84" y="446" />
              <mxPoint x="114" y="446" />
              <mxPoint x="114" y="417" />
            </Array>
            <mxPoint x="83" y="416" as="targetPoint" />
          </mxGeometry>
        </mxCell>
        <mxCell id="zDMqwwzG-wdOb1bjjmcq-19" value="&lt;p style=&quot;margin: 0px ; margin-top: 4px ; text-align: center&quot;&gt;&lt;b&gt;Attachment&lt;/b&gt;&lt;/p&gt;&lt;hr size=&quot;1&quot;&gt;&lt;p style=&quot;margin: 0px ; margin-left: 4px&quot;&gt;+ attachID&lt;/p&gt;&lt;p style=&quot;margin: 0px ; margin-left: 4px&quot;&gt;+ file_name&lt;/p&gt;&lt;p style=&quot;margin: 0px ; margin-left: 4px&quot;&gt;+ file_path&lt;/p&gt;&lt;p style=&quot;margin: 0px ; margin-left: 4px&quot;&gt;+ file_size&lt;/p&gt;&lt;p style=&quot;margin: 0px ; margin-left: 4px&quot;&gt;+ user&lt;/p&gt;&lt;p style=&quot;margin: 0px ; margin-left: 4px&quot;&gt;+ create_time&lt;/p&gt;&lt;p style=&quot;margin: 0px ; margin-left: 4px&quot;&gt;+ modify_time&lt;/p&gt;&lt;hr size=&quot;1&quot;&gt;&lt;p style=&quot;margin: 0px ; margin-left: 4px&quot;&gt;&lt;br&gt;&lt;/p&gt;" style="verticalAlign=top;align=left;overflow=fill;fontSize=12;fontFamily=Helvetica;html=1;rounded=0;gradientColor=none;" parent="1" vertex="1">
          <mxGeometry x="-3156" y="726" width="152.5" height="162" as="geometry" />
        </mxCell>
        <mxCell id="1D7haafFMPJM-0chtQWc-21" value="&lt;font style=&quot;font-size: 17px&quot;&gt;:User database&lt;/font&gt;" style="shape=umlLifeline;perimeter=lifelinePerimeter;whiteSpace=wrap;html=1;container=1;collapsible=0;recursiveResize=0;outlineConnect=0;fontSize=10;strokeWidth=2;" vertex="1" parent="1">
          <mxGeometry x="-4105" y="-2710" width="220" height="913" as="geometry" />
        </mxCell>
        <mxCell id="1D7haafFMPJM-0chtQWc-22" value="" style="html=1;points=[];perimeter=orthogonalPerimeter;fontSize=17;strokeWidth=2;" vertex="1" parent="1D7haafFMPJM-0chtQWc-21">
          <mxGeometry x="105.25" y="606" width="10" height="102" as="geometry" />
        </mxCell>
        <mxCell id="1D7haafFMPJM-0chtQWc-1" value="alt" style="shape=umlFrame;whiteSpace=wrap;html=1;fontSize=12;strokeWidth=2;" vertex="1" parent="1D7haafFMPJM-0chtQWc-21">
          <mxGeometry x="-555" y="185" width="959" height="562" as="geometry" />
        </mxCell>
        <mxCell id="1D7haafFMPJM-0chtQWc-40" value="alt" style="shape=umlFrame;whiteSpace=wrap;html=1;fontSize=12;strokeWidth=2;" vertex="1" parent="1D7haafFMPJM-0chtQWc-21">
          <mxGeometry x="-543" y="457" width="898" height="258" as="geometry" />
        </mxCell>
        <mxCell id="1D7haafFMPJM-0chtQWc-27" value="" style="endArrow=none;dashed=1;html=1;rounded=0;fontSize=15;startSize=12;endSize=15;strokeWidth=1;entryX=0.995;entryY=0.174;entryDx=0;entryDy=0;entryPerimeter=0;exitX=0.003;exitY=0.174;exitDx=0;exitDy=0;exitPerimeter=0;" edge="1" parent="1D7haafFMPJM-0chtQWc-21">
          <mxGeometry width="50" height="50" relative="1" as="geometry">
            <mxPoint x="-569.9970000000003" y="296.99599999999964" as="sourcePoint" />
            <mxPoint x="413.07499999999936" y="296.99599999999964" as="targetPoint" />
          </mxGeometry>
        </mxCell>
        <mxCell id="zDMqwwzG-wdOb1bjjmcq-26" style="edgeStyle=orthogonalEdgeStyle;rounded=0;orthogonalLoop=1;jettySize=auto;html=1;shadow=0;endArrow=block;endFill=0;strokeWidth=1;" parent="1" source="zDMqwwzG-wdOb1bjjmcq-28" target="zDMqwwzG-wdOb1bjjmcq-29" edge="1">
          <mxGeometry relative="1" as="geometry">
            <Array as="points" />
            <mxPoint x="-2789" y="210.5" as="targetPoint" />
          </mxGeometry>
        </mxCell>
        <mxCell id="zDMqwwzG-wdOb1bjjmcq-27" value="Manages" style="edgeLabel;html=1;align=center;verticalAlign=middle;resizable=0;points=[];" parent="zDMqwwzG-wdOb1bjjmcq-26" vertex="1" connectable="0">
          <mxGeometry x="-0.1073" y="3" relative="1" as="geometry">
            <mxPoint x="-6" y="1" as="offset" />
          </mxGeometry>
        </mxCell>
        <mxCell id="zDMqwwzG-wdOb1bjjmcq-28" value="&lt;p style=&quot;margin: 0px ; margin-top: 4px ; text-align: center&quot;&gt;&lt;b&gt;Admin&lt;/b&gt;&lt;/p&gt;&lt;hr size=&quot;1&quot;&gt;&lt;p style=&quot;margin: 0px ; margin-left: 4px&quot;&gt;+ adminName&lt;/p&gt;&lt;hr size=&quot;1&quot;&gt;&lt;p style=&quot;margin: 0px ; margin-left: 4px&quot;&gt;+ editUser()&lt;/p&gt;&lt;p style=&quot;margin: 0px ; margin-left: 4px&quot;&gt;+ deleteUser()&lt;/p&gt;&lt;p style=&quot;margin: 0px ; margin-left: 4px&quot;&gt;+ viewUser()&lt;/p&gt;&lt;p style=&quot;margin: 0px 0px 0px 4px;&quot;&gt;+ viewDocument()&lt;/p&gt;&lt;p style=&quot;margin: 0px 0px 0px 4px;&quot;&gt;+ editDocument()&lt;/p&gt;&lt;p style=&quot;margin: 0px 0px 0px 4px;&quot;&gt;+ deleteDocument()&lt;/p&gt;" style="verticalAlign=top;align=left;overflow=fill;fontSize=12;fontFamily=Helvetica;html=1;rounded=0;gradientColor=none;" parent="1" vertex="1">
          <mxGeometry x="-3275" y="102" width="152.5" height="192" as="geometry" />
        </mxCell>
        <mxCell id="1D7haafFMPJM-0chtQWc-26" value="&lt;b style=&quot;font-size: 15px&quot;&gt;[invalid user]&lt;/b&gt;" style="text;html=1;align=center;verticalAlign=middle;resizable=0;points=[];autosize=1;strokeColor=none;fillColor=none;fontSize=15;" vertex="1" parent="1">
          <mxGeometry x="-4575" y="-2490" width="103" height="22" as="geometry" />
        </mxCell>
        <mxCell id="zDMqwwzG-wdOb1bjjmcq-30" value="" style="edgeStyle=orthogonalEdgeStyle;rounded=0;orthogonalLoop=1;jettySize=auto;html=1;startArrow=diamond;startFill=1;exitX=0.5;exitY=1;exitDx=0;exitDy=0;" parent="1" source="zDMqwwzG-wdOb1bjjmcq-29" target="zDMqwwzG-wdOb1bjjmcq-17" edge="1">
          <mxGeometry relative="1" as="geometry" />
        </mxCell>
        <mxCell id="zDMqwwzG-wdOb1bjjmcq-29" value="&lt;p style=&quot;margin: 0px ; margin-top: 4px ; text-align: center&quot;&gt;&lt;b&gt;User&lt;/b&gt;&lt;/p&gt;&lt;hr size=&quot;1&quot;&gt;&lt;p style=&quot;margin: 0px ; margin-left: 4px&quot;&gt;+ userID&lt;/p&gt;&lt;p style=&quot;margin: 0px ; margin-left: 4px&quot;&gt;+ userName&lt;/p&gt;&lt;p style=&quot;margin: 0px ; margin-left: 4px&quot;&gt;+ userEmail&lt;/p&gt;&lt;p style=&quot;margin: 0px ; margin-left: 4px&quot;&gt;+ password&lt;/p&gt;&lt;p style=&quot;margin: 0px ; margin-left: 4px&quot;&gt;+ loginStatus&lt;/p&gt;&lt;p style=&quot;margin: 0px ; margin-left: 4px&quot;&gt;+ countMaps&lt;/p&gt;&lt;hr size=&quot;1&quot;&gt;&lt;p style=&quot;margin: 0px ; margin-left: 4px&quot;&gt;+ verifyLogin()&lt;/p&gt;&lt;p style=&quot;margin: 0px ; margin-left: 4px&quot;&gt;+ draw()&lt;/p&gt;&lt;p style=&quot;margin: 0px ; margin-left: 4px&quot;&gt;+ upload()&lt;/p&gt;&lt;p style=&quot;margin: 0px ; margin-left: 4px&quot;&gt;+ download()&lt;/p&gt;&lt;p style=&quot;margin: 0px ; margin-left: 4px&quot;&gt;+ comment()&lt;/p&gt;&lt;p style=&quot;margin: 0px ; margin-left: 4px&quot;&gt;+ share()&lt;/p&gt;&lt;p style=&quot;margin: 0px 0px 0px 4px;&quot;&gt;&lt;br&gt;&lt;/p&gt;&lt;p style=&quot;margin: 0px ; margin-left: 4px&quot;&gt;&lt;br&gt;&lt;/p&gt;" style="verticalAlign=top;align=left;overflow=fill;fontSize=12;fontFamily=Helvetica;html=1;rounded=0;gradientColor=none;" parent="1" vertex="1">
          <mxGeometry x="-2997" y="80" width="152.5" height="238" as="geometry" />
        </mxCell>
        <mxCell id="1D7haafFMPJM-0chtQWc-28" value="&lt;b&gt;[valid user]&lt;/b&gt;" style="text;html=1;align=center;verticalAlign=middle;resizable=0;points=[];autosize=1;strokeColor=none;fillColor=none;fontSize=15;" vertex="1" parent="1">
          <mxGeometry x="-4569" y="-2401" width="90" height="22" as="geometry" />
        </mxCell>
        <mxCell id="zDMqwwzG-wdOb1bjjmcq-31" style="edgeStyle=orthogonalEdgeStyle;rounded=0;orthogonalLoop=1;jettySize=auto;html=1;shadow=0;endArrow=block;endFill=0;strokeWidth=1;entryX=0;entryY=0.5;entryDx=0;entryDy=0;" parent="1" source="zDMqwwzG-wdOb1bjjmcq-28" target="zDMqwwzG-wdOb1bjjmcq-17" edge="1">
          <mxGeometry relative="1" as="geometry">
            <Array as="points" />
            <mxPoint x="-2987" y="209" as="targetPoint" />
            <mxPoint x="-3112.5" y="208.090909090909" as="sourcePoint" />
          </mxGeometry>
        </mxCell>
        <mxCell id="zDMqwwzG-wdOb1bjjmcq-32" value="Manages" style="edgeLabel;html=1;align=center;verticalAlign=middle;resizable=0;points=[];" parent="zDMqwwzG-wdOb1bjjmcq-31" vertex="1" connectable="0">
          <mxGeometry x="-0.1073" y="3" relative="1" as="geometry">
            <mxPoint x="-6" y="1" as="offset" />
          </mxGeometry>
        </mxCell>
        <mxCell id="tPWhLoHGywmmNPwIWMqB-1" style="edgeStyle=orthogonalEdgeStyle;rounded=0;orthogonalLoop=1;jettySize=auto;html=1;exitX=0.014;exitY=0.335;exitDx=0;exitDy=0;entryX=0.99;entryY=0.655;entryDx=0;entryDy=0;entryPerimeter=0;shadow=0;endArrow=none;endFill=0;strokeWidth=1;exitPerimeter=0;" edge="1" parent="1" source="tPWhLoHGywmmNPwIWMqB-2" target="tPWhLoHGywmmNPwIWMqB-14">
          <mxGeometry relative="1" as="geometry">
            <Array as="points">
              <mxPoint x="-3053" y="1498" />
            </Array>
          </mxGeometry>
        </mxCell>
        <mxCell id="1D7haafFMPJM-0chtQWc-29" value="rejectRequest()" style="html=1;verticalAlign=bottom;endArrow=none;rounded=0;fontSize=15;endSize=10;endFill=0;startArrow=open;startFill=0;" edge="1" parent="1">
          <mxGeometry relative="1" as="geometry">
            <mxPoint x="-4619" y="-2439" as="sourcePoint" />
            <mxPoint x="-4406" y="-2439" as="targetPoint" />
          </mxGeometry>
        </mxCell>
        <mxCell id="tPWhLoHGywmmNPwIWMqB-2" value="&lt;p style=&quot;margin: 0px ; margin-top: 4px ; text-align: center&quot;&gt;&lt;b&gt;User&lt;/b&gt;&lt;/p&gt;&lt;hr size=&quot;1&quot;&gt;&lt;p style=&quot;margin: 0px ; margin-left: 4px&quot;&gt;+ userID&lt;/p&gt;&lt;p style=&quot;margin: 0px ; margin-left: 4px&quot;&gt;+ userName&lt;/p&gt;&lt;p style=&quot;margin: 0px ; margin-left: 4px&quot;&gt;+ userEmail&lt;/p&gt;&lt;p style=&quot;margin: 0px ; margin-left: 4px&quot;&gt;+ password&lt;/p&gt;&lt;p style=&quot;margin: 0px ; margin-left: 4px&quot;&gt;+ loginStatus&lt;/p&gt;&lt;p style=&quot;margin: 0px ; margin-left: 4px&quot;&gt;+ countMaps&lt;/p&gt;&lt;hr size=&quot;1&quot;&gt;&lt;p style=&quot;margin: 0px ; margin-left: 4px&quot;&gt;+ verifyLogin()&lt;/p&gt;&lt;p style=&quot;margin: 0px ; margin-left: 4px&quot;&gt;+ draw()&lt;/p&gt;&lt;p style=&quot;margin: 0px ; margin-left: 4px&quot;&gt;+ upload()&lt;/p&gt;&lt;p style=&quot;margin: 0px ; margin-left: 4px&quot;&gt;+ download()&lt;/p&gt;&lt;p style=&quot;margin: 0px ; margin-left: 4px&quot;&gt;+ comment()&lt;/p&gt;&lt;p style=&quot;margin: 0px ; margin-left: 4px&quot;&gt;+ share()&lt;/p&gt;&lt;p style=&quot;margin: 0px ; margin-left: 4px&quot;&gt;&lt;br&gt;&lt;/p&gt;" style="verticalAlign=top;align=left;overflow=fill;fontSize=12;fontFamily=Helvetica;html=1;rounded=0;gradientColor=none;" vertex="1" parent="1">
          <mxGeometry x="-3053.5" y="1423" width="152.5" height="224" as="geometry" />
        </mxCell>
        <mxCell id="1D7haafFMPJM-0chtQWc-30" value="acceptServiceRequest()" style="html=1;verticalAlign=bottom;endArrow=none;rounded=0;fontSize=15;endSize=10;endFill=0;startArrow=open;startFill=0;" edge="1" parent="1">
          <mxGeometry relative="1" as="geometry">
            <mxPoint x="-4622" y="-2354" as="sourcePoint" />
            <mxPoint x="-4409" y="-2354" as="targetPoint" />
          </mxGeometry>
        </mxCell>
        <mxCell id="tPWhLoHGywmmNPwIWMqB-3" style="edgeStyle=orthogonalEdgeStyle;rounded=0;orthogonalLoop=1;jettySize=auto;html=1;exitX=0;exitY=0.25;exitDx=0;exitDy=0;entryX=0.993;entryY=0.903;entryDx=0;entryDy=0;entryPerimeter=0;shadow=0;endArrow=diamond;endFill=1;strokeWidth=1;" edge="1" parent="1" source="tPWhLoHGywmmNPwIWMqB-4" target="tPWhLoHGywmmNPwIWMqB-2">
          <mxGeometry relative="1" as="geometry" />
        </mxCell>
        <mxCell id="tPWhLoHGywmmNPwIWMqB-4" value="&lt;p style=&quot;margin: 0px ; margin-top: 4px ; text-align: center&quot;&gt;&lt;b&gt;Register&lt;/b&gt;&lt;/p&gt;&lt;hr size=&quot;1&quot;&gt;&lt;p style=&quot;margin: 0px ; margin-left: 4px&quot;&gt;+ email&lt;/p&gt;&lt;p style=&quot;margin: 0px ; margin-left: 4px&quot;&gt;+ firstName&lt;/p&gt;&lt;p style=&quot;margin: 0px ; margin-left: 4px&quot;&gt;+ lastName&lt;/p&gt;&lt;p style=&quot;margin: 0px ; margin-left: 4px&quot;&gt;+ password&lt;/p&gt;&lt;p style=&quot;margin: 0px ; margin-left: 4px&quot;&gt;+ registerDate&lt;/p&gt;&lt;hr size=&quot;1&quot;&gt;&lt;p style=&quot;margin: 0px ; margin-left: 4px&quot;&gt;+ registerUser()&lt;/p&gt;&lt;p style=&quot;margin: 0px ; margin-left: 4px&quot;&gt;+ Login()&lt;/p&gt;&lt;p style=&quot;margin: 0px ; margin-left: 4px&quot;&gt;+ Logout()&lt;/p&gt;" style="verticalAlign=top;align=left;overflow=fill;fontSize=12;fontFamily=Helvetica;html=1;rounded=0;gradientColor=none;" vertex="1" parent="1">
          <mxGeometry x="-2835" y="1584" width="152.5" height="167" as="geometry" />
        </mxCell>
        <mxCell id="1D7haafFMPJM-0chtQWc-32" value="&lt;b style=&quot;font-size: 15px&quot;&gt;[invalid format]&lt;/b&gt;" style="text;html=1;align=center;verticalAlign=middle;resizable=0;points=[];autosize=1;strokeColor=none;fillColor=none;fontSize=15;" vertex="1" parent="1">
          <mxGeometry x="-4576" y="-2232.5" width="118" height="22" as="geometry" />
        </mxCell>
        <mxCell id="tPWhLoHGywmmNPwIWMqB-5" style="edgeStyle=orthogonalEdgeStyle;rounded=0;orthogonalLoop=1;jettySize=auto;html=1;exitX=1;exitY=0.5;exitDx=0;exitDy=0;entryX=1;entryY=0.25;entryDx=0;entryDy=0;shadow=0;endArrow=block;endFill=0;strokeWidth=1;" edge="1" parent="1" source="tPWhLoHGywmmNPwIWMqB-7" target="tPWhLoHGywmmNPwIWMqB-2">
          <mxGeometry relative="1" as="geometry">
            <Array as="points">
              <mxPoint x="-2865" y="1323" />
              <mxPoint x="-2865" y="1479" />
            </Array>
          </mxGeometry>
        </mxCell>
        <mxCell id="tPWhLoHGywmmNPwIWMqB-6" value="Manages" style="edgeLabel;html=1;align=center;verticalAlign=middle;resizable=0;points=[];" vertex="1" connectable="0" parent="tPWhLoHGywmmNPwIWMqB-5">
          <mxGeometry x="-0.1073" y="3" relative="1" as="geometry">
            <mxPoint x="-8" y="8" as="offset" />
          </mxGeometry>
        </mxCell>
        <mxCell id="tPWhLoHGywmmNPwIWMqB-7" value="&lt;p style=&quot;margin: 0px ; margin-top: 4px ; text-align: center&quot;&gt;&lt;b&gt;Admin&lt;/b&gt;&lt;/p&gt;&lt;hr size=&quot;1&quot;&gt;&lt;p style=&quot;margin: 0px ; margin-left: 4px&quot;&gt;+ adminName&lt;/p&gt;&lt;hr size=&quot;1&quot;&gt;&lt;p style=&quot;margin: 0px ; margin-left: 4px&quot;&gt;+ editUser()&lt;/p&gt;&lt;p style=&quot;margin: 0px ; margin-left: 4px&quot;&gt;+ deleteUser()&lt;/p&gt;&lt;p style=&quot;margin: 0px ; margin-left: 4px&quot;&gt;+ viewUser()&lt;/p&gt;" style="verticalAlign=top;align=left;overflow=fill;fontSize=12;fontFamily=Helvetica;html=1;rounded=0;gradientColor=none;" vertex="1" parent="1">
          <mxGeometry x="-3053.5" y="1294" width="152.5" height="110" as="geometry" />
        </mxCell>
        <mxCell id="1D7haafFMPJM-0chtQWc-34" value="errorMessage" style="html=1;verticalAlign=bottom;endArrow=none;rounded=0;fontSize=15;endSize=10;endFill=0;dashed=1;startArrow=open;startFill=0;" edge="1" parent="1">
          <mxGeometry relative="1" as="geometry">
            <mxPoint x="-4623.5" y="-2182" as="sourcePoint" />
            <mxPoint x="-4226" y="-2182" as="targetPoint" />
          </mxGeometry>
        </mxCell>
        <mxCell id="tPWhLoHGywmmNPwIWMqB-8" style="edgeStyle=orthogonalEdgeStyle;rounded=0;orthogonalLoop=1;jettySize=auto;html=1;exitX=0;exitY=0.5;exitDx=0;exitDy=0;shadow=0;endArrow=diamond;endFill=1;strokeWidth=1;startArrow=none;" edge="1" parent="1" source="tPWhLoHGywmmNPwIWMqB-16">
          <mxGeometry relative="1" as="geometry">
            <mxPoint x="-2898.2941284179688" y="1498.4705882352941" as="targetPoint" />
          </mxGeometry>
        </mxCell>
        <mxCell id="1D7haafFMPJM-0chtQWc-35" value="" style="endArrow=none;dashed=1;html=1;rounded=0;fontSize=15;startSize=12;endSize=15;strokeWidth=1;entryX=0.995;entryY=0.174;entryDx=0;entryDy=0;entryPerimeter=0;" edge="1" parent="1">
          <mxGeometry width="50" height="50" relative="1" as="geometry">
            <mxPoint x="-4643" y="-2169" as="sourcePoint" />
            <mxPoint x="-3687.005" y="-2168.9980000000005" as="targetPoint" />
          </mxGeometry>
        </mxCell>
        <mxCell id="tPWhLoHGywmmNPwIWMqB-9" style="edgeStyle=orthogonalEdgeStyle;rounded=0;orthogonalLoop=1;jettySize=auto;html=1;exitX=1;exitY=0.75;exitDx=0;exitDy=0;entryX=1;entryY=0.75;entryDx=0;entryDy=0;shadow=0;endArrow=none;endFill=0;strokeWidth=1;" edge="1" parent="1" source="tPWhLoHGywmmNPwIWMqB-11" target="tPWhLoHGywmmNPwIWMqB-15">
          <mxGeometry relative="1" as="geometry" />
        </mxCell>
        <mxCell id="tPWhLoHGywmmNPwIWMqB-10" value="records" style="edgeLabel;html=1;align=center;verticalAlign=middle;resizable=0;points=[];" vertex="1" connectable="0" parent="tPWhLoHGywmmNPwIWMqB-9">
          <mxGeometry x="0.4706" y="-4" relative="1" as="geometry">
            <mxPoint x="-1" as="offset" />
          </mxGeometry>
        </mxCell>
        <mxCell id="1D7haafFMPJM-0chtQWc-36" value="&lt;b style=&quot;font-size: 15px&quot;&gt;[valid format]&lt;/b&gt;" style="text;html=1;align=center;verticalAlign=middle;resizable=0;points=[];autosize=1;strokeColor=none;fillColor=none;fontSize=15;" vertex="1" parent="1">
          <mxGeometry x="-4569" y="-2162" width="105" height="22" as="geometry" />
        </mxCell>
        <mxCell id="tPWhLoHGywmmNPwIWMqB-11" value="&lt;p style=&quot;margin: 0px ; margin-top: 4px ; text-align: center&quot;&gt;&lt;b&gt;UserActivity&lt;/b&gt;&lt;/p&gt;&lt;hr size=&quot;1&quot;&gt;&lt;p style=&quot;margin: 0px ; margin-left: 4px&quot;&gt;+ lastLogin&lt;/p&gt;&lt;p style=&quot;margin: 0px ; margin-left: 4px&quot;&gt;+ timeLoggedIn&lt;/p&gt;&lt;p style=&quot;margin: 0px ; margin-left: 4px&quot;&gt;+ ifModify&lt;/p&gt;&lt;p style=&quot;margin: 0px ; margin-left: 4px&quot;&gt;+ countModify&lt;/p&gt;&lt;hr size=&quot;1&quot;&gt;&lt;p style=&quot;margin: 0px ; margin-left: 4px&quot;&gt;+ getLastLogin()&lt;/p&gt;&lt;p style=&quot;margin: 0px ; margin-left: 4px&quot;&gt;+ getTimeLoggedIn()&lt;/p&gt;&lt;p style=&quot;margin: 0px ; margin-left: 4px&quot;&gt;+ getModified()&lt;/p&gt;" style="verticalAlign=top;align=left;overflow=fill;fontSize=12;fontFamily=Helvetica;html=1;rounded=0;gradientColor=none;" vertex="1" parent="1">
          <mxGeometry x="-2835" y="1423" width="152.5" height="151" as="geometry" />
        </mxCell>
        <mxCell id="tPWhLoHGywmmNPwIWMqB-12" style="edgeStyle=orthogonalEdgeStyle;rounded=0;orthogonalLoop=1;jettySize=auto;html=1;exitX=0.5;exitY=1;exitDx=0;exitDy=0;entryX=0;entryY=0.5;entryDx=0;entryDy=0;shadow=0;endArrow=none;endFill=0;strokeWidth=1;" edge="1" parent="1" source="tPWhLoHGywmmNPwIWMqB-14" target="tPWhLoHGywmmNPwIWMqB-15">
          <mxGeometry relative="1" as="geometry" />
        </mxCell>
        <mxCell id="tPWhLoHGywmmNPwIWMqB-13" value="creates" style="edgeLabel;html=1;align=center;verticalAlign=middle;resizable=0;points=[];" vertex="1" connectable="0" parent="tPWhLoHGywmmNPwIWMqB-12">
          <mxGeometry x="-0.3206" y="9" relative="1" as="geometry">
            <mxPoint as="offset" />
          </mxGeometry>
        </mxCell>
        <mxCell id="tPWhLoHGywmmNPwIWMqB-14" value="&lt;p style=&quot;margin: 0px ; margin-top: 4px ; text-align: center&quot;&gt;&lt;b&gt;Write&lt;/b&gt;&lt;/p&gt;&lt;hr size=&quot;1&quot;&gt;&lt;p style=&quot;margin: 0px ; margin-left: 4px&quot;&gt;+ addText&lt;/p&gt;&lt;p style=&quot;margin: 0px ; margin-left: 4px&quot;&gt;+ countBranch&lt;/p&gt;&lt;p style=&quot;margin: 0px ; margin-left: 4px&quot;&gt;+ nodeStyle&lt;/p&gt;&lt;p style=&quot;margin: 0px ; margin-left: 4px&quot;&gt;+ branchStyle&lt;/p&gt;&lt;p style=&quot;margin: 0px ; margin-left: 4px&quot;&gt;+ bgStyle&lt;/p&gt;&lt;hr size=&quot;1&quot;&gt;&lt;p style=&quot;margin: 0px ; margin-left: 4px&quot;&gt;+ addText()&lt;/p&gt;&lt;p style=&quot;margin: 0px ; margin-left: 4px&quot;&gt;+ deleteText()&lt;/p&gt;&lt;p style=&quot;margin: 0px ; margin-left: 4px&quot;&gt;+ changeFontStyle()&lt;/p&gt;&lt;p style=&quot;margin: 0px ; margin-left: 4px&quot;&gt;+ changeFontSize()&lt;/p&gt;&lt;p style=&quot;margin: 0px ; margin-left: 4px&quot;&gt;+ bold()&lt;/p&gt;&lt;p style=&quot;margin: 0px ; margin-left: 4px&quot;&gt;+ italic()&lt;/p&gt;&lt;p style=&quot;margin: 0px ; margin-left: 4px&quot;&gt;+ underline()&lt;/p&gt;&lt;p style=&quot;margin: 0px ; margin-left: 4px&quot;&gt;+ addEmbeddedTable()&lt;br&gt;&lt;/p&gt;&lt;p style=&quot;margin: 0px ; margin-left: 4px&quot;&gt;+ addMindMap()&lt;/p&gt;&lt;p style=&quot;margin: 0px ; margin-left: 4px&quot;&gt;+ importAttachment()&lt;/p&gt;&lt;p style=&quot;margin: 0px ; margin-left: 4px&quot;&gt;&lt;br&gt;&lt;/p&gt;&lt;p style=&quot;margin: 0px ; margin-left: 4px&quot;&gt;&lt;br&gt;&lt;/p&gt;&lt;p style=&quot;margin: 0px ; margin-left: 4px&quot;&gt;&lt;br&gt;&lt;/p&gt;" style="verticalAlign=top;align=left;overflow=fill;fontSize=12;fontFamily=Helvetica;html=1;rounded=0;gradientColor=none;" vertex="1" parent="1">
          <mxGeometry x="-3257" y="1323" width="152.5" height="266" as="geometry" />
        </mxCell>
        <mxCell id="tPWhLoHGywmmNPwIWMqB-15" value="&lt;p style=&quot;margin: 0px ; margin-top: 4px ; text-align: center&quot;&gt;&lt;b&gt;Document&lt;/b&gt;&lt;/p&gt;&lt;hr size=&quot;1&quot;&gt;&lt;p style=&quot;margin: 0px ; margin-left: 4px&quot;&gt;+ dID&lt;/p&gt;&lt;p style=&quot;margin: 0px ; margin-left: 4px&quot;&gt;+ name&lt;/p&gt;&lt;p style=&quot;margin: 0px ; margin-left: 4px&quot;&gt;+ content&lt;/p&gt;&lt;p style=&quot;margin: 0px ; margin-left: 4px&quot;&gt;+ parent_project&lt;/p&gt;&lt;p style=&quot;margin: 0px ; margin-left: 4px&quot;&gt;+ create_user&lt;/p&gt;&lt;p style=&quot;margin: 0px ; margin-left: 4px&quot;&gt;+ create_time&lt;/p&gt;&lt;p style=&quot;margin: 0px ; margin-left: 4px&quot;&gt;+ modify_time&lt;/p&gt;&lt;p style=&quot;margin: 0px ; margin-left: 4px&quot;&gt;+ status&lt;/p&gt;&lt;hr size=&quot;1&quot;&gt;&lt;p style=&quot;margin: 0px ; margin-left: 4px&quot;&gt;&lt;br&gt;&lt;/p&gt;" style="verticalAlign=top;align=left;overflow=fill;fontSize=12;fontFamily=Helvetica;html=1;rounded=0;gradientColor=none;" vertex="1" parent="1">
          <mxGeometry x="-3055" y="1665" width="152.5" height="173" as="geometry" />
        </mxCell>
        <mxCell id="tPWhLoHGywmmNPwIWMqB-16" value="has" style="text;html=1;align=center;verticalAlign=middle;resizable=0;points=[];autosize=1;strokeColor=none;fillColor=none;" vertex="1" parent="1">
          <mxGeometry x="-2878" y="1492" width="29" height="18" as="geometry" />
        </mxCell>
        <mxCell id="tPWhLoHGywmmNPwIWMqB-17" value="" style="edgeStyle=orthogonalEdgeStyle;rounded=0;orthogonalLoop=1;jettySize=auto;html=1;exitX=0;exitY=0.5;exitDx=0;exitDy=0;shadow=0;endArrow=none;endFill=1;strokeWidth=1;" edge="1" parent="1" source="tPWhLoHGywmmNPwIWMqB-11" target="tPWhLoHGywmmNPwIWMqB-16">
          <mxGeometry relative="1" as="geometry">
            <mxPoint x="-2898.2941284179688" y="1498.4705882352941" as="targetPoint" />
            <mxPoint x="-2835" y="1498.5" as="sourcePoint" />
          </mxGeometry>
        </mxCell>
        <mxCell id="tPWhLoHGywmmNPwIWMqB-18" value="has" style="text;html=1;align=center;verticalAlign=middle;resizable=0;points=[];autosize=1;strokeColor=none;fillColor=none;" vertex="1" parent="1">
          <mxGeometry x="-2880" y="1629" width="29" height="18" as="geometry" />
        </mxCell>
        <mxCell id="tPWhLoHGywmmNPwIWMqB-19" value="issues" style="text;html=1;align=center;verticalAlign=middle;resizable=0;points=[];autosize=1;strokeColor=none;fillColor=none;" vertex="1" parent="1">
          <mxGeometry x="-3102" y="1499" width="44" height="18" as="geometry" />
        </mxCell>
        <mxCell id="tPWhLoHGywmmNPwIWMqB-20" value="Clarance" style="shape=umlActor;verticalLabelPosition=bottom;verticalAlign=top;html=1;outlineConnect=0;fillColor=default;" vertex="1" parent="1">
          <mxGeometry x="-4285" y="2383" width="30" height="60" as="geometry" />
        </mxCell>
        <mxCell id="1D7haafFMPJM-0chtQWc-45" value="successfulUpdateMessage" style="html=1;verticalAlign=bottom;endArrow=none;rounded=0;fontSize=15;endSize=10;endFill=0;dashed=1;startArrow=open;startFill=0;" edge="1" parent="1">
          <mxGeometry relative="1" as="geometry">
            <mxPoint x="-4622" y="-2039.59" as="sourcePoint" />
            <mxPoint x="-4003" y="-2040" as="targetPoint" />
          </mxGeometry>
        </mxCell>
        <mxCell id="tPWhLoHGywmmNPwIWMqB-21" value="" style="group" connectable="0" vertex="1" parent="1">
          <mxGeometry x="-4525.5" y="2517" width="122.5" height="60" as="geometry" />
        </mxCell>
        <mxCell id="tPWhLoHGywmmNPwIWMqB-22" value="" style="verticalLabelPosition=bottom;verticalAlign=top;html=1;shape=mxgraph.basic.layered_rect;dx=10;outlineConnect=0;" vertex="1" parent="tPWhLoHGywmmNPwIWMqB-21">
          <mxGeometry width="122.5" height="60" as="geometry" />
        </mxCell>
        <mxCell id="tPWhLoHGywmmNPwIWMqB-23" value="Clarance&#39;s Public&amp;nbsp;&lt;br&gt;Project 1" style="text;html=1;align=center;verticalAlign=middle;resizable=0;points=[];autosize=1;strokeColor=none;fillColor=none;" vertex="1" parent="tPWhLoHGywmmNPwIWMqB-21">
          <mxGeometry x="3.5" y="9" width="106" height="32" as="geometry" />
        </mxCell>
        <mxCell id="tPWhLoHGywmmNPwIWMqB-24" value="Doc1" style="shape=note;size=20;whiteSpace=wrap;html=1;" vertex="1" parent="1">
          <mxGeometry x="-4686" y="2665" width="66" height="76" as="geometry" />
        </mxCell>
        <mxCell id="1D7haafFMPJM-0chtQWc-47" value="" style="endArrow=classic;html=1;rounded=0;fontSize=12;startSize=12;endSize=15;strokeWidth=1;" edge="1" parent="1">
          <mxGeometry width="50" height="50" relative="1" as="geometry">
            <mxPoint x="-4780" y="-2671" as="sourcePoint" />
            <mxPoint x="-4780" y="-1834" as="targetPoint" />
          </mxGeometry>
        </mxCell>
        <mxCell id="tPWhLoHGywmmNPwIWMqB-25" value="Table1" style="shape=note;size=20;whiteSpace=wrap;html=1;" vertex="1" parent="1">
          <mxGeometry x="-4351" y="2665" width="66" height="76" as="geometry" />
        </mxCell>
        <mxCell id="1D7haafFMPJM-0chtQWc-48" value="&lt;font style=&quot;font-size: 15px&quot;&gt;time&lt;/font&gt;" style="text;html=1;align=center;verticalAlign=middle;resizable=0;points=[];autosize=1;strokeColor=none;fillColor=none;fontSize=12;" vertex="1" parent="1">
          <mxGeometry x="-4775" y="-1837" width="38" height="19" as="geometry" />
        </mxCell>
        <mxCell id="tPWhLoHGywmmNPwIWMqB-26" value="Table2" style="shape=note;size=20;whiteSpace=wrap;html=1;" vertex="1" parent="1">
          <mxGeometry x="-4462" y="2665" width="66" height="76" as="geometry" />
        </mxCell>
        <mxCell id="tPWhLoHGywmmNPwIWMqB-27" value="Doc2" style="shape=note;size=20;whiteSpace=wrap;html=1;" vertex="1" parent="1">
          <mxGeometry x="-4583" y="2665" width="66" height="76" as="geometry" />
        </mxCell>
        <mxCell id="tPWhLoHGywmmNPwIWMqB-28" style="edgeStyle=orthogonalEdgeStyle;rounded=0;orthogonalLoop=1;jettySize=auto;html=1;exitX=0;exitY=0;exitDx=66.25;exitDy=60;exitPerimeter=0;endArrow=none;endFill=0;endSize=16;entryX=0.5;entryY=0;entryDx=0;entryDy=0;entryPerimeter=0;" edge="1" parent="1" source="tPWhLoHGywmmNPwIWMqB-22" target="tPWhLoHGywmmNPwIWMqB-24">
          <mxGeometry relative="1" as="geometry">
            <mxPoint x="-4633.941215963925" y="2646.1764849494484" as="targetPoint" />
          </mxGeometry>
        </mxCell>
        <mxCell id="tPWhLoHGywmmNPwIWMqB-29" style="edgeStyle=orthogonalEdgeStyle;rounded=0;orthogonalLoop=1;jettySize=auto;html=1;exitX=0;exitY=0;exitDx=66.25;exitDy=60;exitPerimeter=0;entryX=0;entryY=0;entryDx=23;entryDy=0;entryPerimeter=0;endArrow=none;endFill=0;endSize=16;" edge="1" parent="1" source="tPWhLoHGywmmNPwIWMqB-22" target="tPWhLoHGywmmNPwIWMqB-27">
          <mxGeometry relative="1" as="geometry" />
        </mxCell>
        <mxCell id="tPWhLoHGywmmNPwIWMqB-30" style="edgeStyle=orthogonalEdgeStyle;rounded=0;orthogonalLoop=1;jettySize=auto;html=1;exitX=0;exitY=0;exitDx=66.25;exitDy=60;exitPerimeter=0;entryX=0.5;entryY=0;entryDx=0;entryDy=0;entryPerimeter=0;endArrow=none;endFill=0;endSize=16;" edge="1" parent="1" source="tPWhLoHGywmmNPwIWMqB-22" target="tPWhLoHGywmmNPwIWMqB-26">
          <mxGeometry relative="1" as="geometry" />
        </mxCell>
        <mxCell id="tPWhLoHGywmmNPwIWMqB-31" style="edgeStyle=orthogonalEdgeStyle;rounded=0;orthogonalLoop=1;jettySize=auto;html=1;exitX=0;exitY=0;exitDx=66.25;exitDy=60;exitPerimeter=0;entryX=0.5;entryY=0;entryDx=0;entryDy=0;entryPerimeter=0;endArrow=none;endFill=0;endSize=16;" edge="1" parent="1" source="tPWhLoHGywmmNPwIWMqB-22" target="tPWhLoHGywmmNPwIWMqB-25">
          <mxGeometry relative="1" as="geometry" />
        </mxCell>
        <mxCell id="tPWhLoHGywmmNPwIWMqB-32" value="" style="group" connectable="0" vertex="1" parent="1">
          <mxGeometry x="-4095" y="2517" width="122.5" height="60" as="geometry" />
        </mxCell>
        <mxCell id="tPWhLoHGywmmNPwIWMqB-33" value="" style="verticalLabelPosition=bottom;verticalAlign=top;html=1;shape=mxgraph.basic.layered_rect;dx=10;outlineConnect=0;" vertex="1" parent="tPWhLoHGywmmNPwIWMqB-32">
          <mxGeometry width="122.5" height="60" as="geometry" />
        </mxCell>
        <mxCell id="tPWhLoHGywmmNPwIWMqB-34" value="Clarance&#39;s Private&lt;br&gt;Project 1" style="text;html=1;align=center;verticalAlign=middle;resizable=0;points=[];autosize=1;strokeColor=none;fillColor=none;" vertex="1" parent="tPWhLoHGywmmNPwIWMqB-32">
          <mxGeometry x="3.5" y="9" width="107" height="32" as="geometry" />
        </mxCell>
        <mxCell id="tPWhLoHGywmmNPwIWMqB-35" value="Doc1" style="shape=note;size=20;whiteSpace=wrap;html=1;" vertex="1" parent="1">
          <mxGeometry x="-4255.5" y="2665" width="66" height="76" as="geometry" />
        </mxCell>
        <mxCell id="tPWhLoHGywmmNPwIWMqB-36" value="Table1" style="shape=note;size=20;whiteSpace=wrap;html=1;" vertex="1" parent="1">
          <mxGeometry x="-3920.5" y="2665" width="66" height="76" as="geometry" />
        </mxCell>
        <mxCell id="tPWhLoHGywmmNPwIWMqB-37" value="Table2" style="shape=note;size=20;whiteSpace=wrap;html=1;" vertex="1" parent="1">
          <mxGeometry x="-4031.5" y="2665" width="66" height="76" as="geometry" />
        </mxCell>
        <mxCell id="tPWhLoHGywmmNPwIWMqB-38" value="Doc2" style="shape=note;size=20;whiteSpace=wrap;html=1;" vertex="1" parent="1">
          <mxGeometry x="-4152.5" y="2665" width="66" height="76" as="geometry" />
        </mxCell>
        <mxCell id="tPWhLoHGywmmNPwIWMqB-39" style="edgeStyle=orthogonalEdgeStyle;rounded=0;orthogonalLoop=1;jettySize=auto;html=1;exitX=0;exitY=0;exitDx=66.25;exitDy=60;exitPerimeter=0;endArrow=none;endFill=0;endSize=16;entryX=0.5;entryY=0;entryDx=0;entryDy=0;entryPerimeter=0;" edge="1" parent="1" source="tPWhLoHGywmmNPwIWMqB-33" target="tPWhLoHGywmmNPwIWMqB-35">
          <mxGeometry relative="1" as="geometry">
            <mxPoint x="-4203.441215963925" y="2646.1764849494484" as="targetPoint" />
          </mxGeometry>
        </mxCell>
        <mxCell id="tPWhLoHGywmmNPwIWMqB-40" style="edgeStyle=orthogonalEdgeStyle;rounded=0;orthogonalLoop=1;jettySize=auto;html=1;exitX=0;exitY=0;exitDx=66.25;exitDy=60;exitPerimeter=0;entryX=0;entryY=0;entryDx=23;entryDy=0;entryPerimeter=0;endArrow=none;endFill=0;endSize=16;" edge="1" parent="1" source="tPWhLoHGywmmNPwIWMqB-33" target="tPWhLoHGywmmNPwIWMqB-38">
          <mxGeometry relative="1" as="geometry" />
        </mxCell>
        <mxCell id="tPWhLoHGywmmNPwIWMqB-41" style="edgeStyle=orthogonalEdgeStyle;rounded=0;orthogonalLoop=1;jettySize=auto;html=1;exitX=0;exitY=0;exitDx=66.25;exitDy=60;exitPerimeter=0;entryX=0.5;entryY=0;entryDx=0;entryDy=0;entryPerimeter=0;endArrow=none;endFill=0;endSize=16;" edge="1" parent="1" source="tPWhLoHGywmmNPwIWMqB-33" target="tPWhLoHGywmmNPwIWMqB-37">
          <mxGeometry relative="1" as="geometry" />
        </mxCell>
        <mxCell id="tPWhLoHGywmmNPwIWMqB-42" style="edgeStyle=orthogonalEdgeStyle;rounded=0;orthogonalLoop=1;jettySize=auto;html=1;exitX=0;exitY=0;exitDx=66.25;exitDy=60;exitPerimeter=0;entryX=0.5;entryY=0;entryDx=0;entryDy=0;entryPerimeter=0;endArrow=none;endFill=0;endSize=16;" edge="1" parent="1" source="tPWhLoHGywmmNPwIWMqB-33" target="tPWhLoHGywmmNPwIWMqB-36">
          <mxGeometry relative="1" as="geometry" />
        </mxCell>
        <mxCell id="tPWhLoHGywmmNPwIWMqB-43" value="" style="endArrow=none;html=1;rounded=0;endSize=16;exitX=0.25;exitY=0.1;exitDx=0;exitDy=0;exitPerimeter=0;entryX=0.5;entryY=1;entryDx=0;entryDy=0;entryPerimeter=0;" edge="1" parent="1" source="tPWhLoHGywmmNPwIWMqB-62" target="tPWhLoHGywmmNPwIWMqB-24">
          <mxGeometry width="50" height="50" relative="1" as="geometry">
            <mxPoint x="-4174" y="2773" as="sourcePoint" />
            <mxPoint x="-4124" y="2723" as="targetPoint" />
          </mxGeometry>
        </mxCell>
        <mxCell id="tPWhLoHGywmmNPwIWMqB-44" value="" style="endArrow=none;html=1;rounded=0;endSize=16;exitX=0.25;exitY=0.1;exitDx=0;exitDy=0;exitPerimeter=0;entryX=0.5;entryY=1;entryDx=0;entryDy=0;entryPerimeter=0;" edge="1" parent="1" source="tPWhLoHGywmmNPwIWMqB-62" target="tPWhLoHGywmmNPwIWMqB-27">
          <mxGeometry width="50" height="50" relative="1" as="geometry">
            <mxPoint x="-4306" y="2923" as="sourcePoint" />
            <mxPoint x="-4643" y="2750.9999999999995" as="targetPoint" />
          </mxGeometry>
        </mxCell>
        <mxCell id="tPWhLoHGywmmNPwIWMqB-45" value="" style="endArrow=none;html=1;rounded=0;endSize=16;exitX=0.25;exitY=0.1;exitDx=0;exitDy=0;exitPerimeter=0;entryX=0.5;entryY=1;entryDx=0;entryDy=0;entryPerimeter=0;" edge="1" parent="1" source="tPWhLoHGywmmNPwIWMqB-62" target="tPWhLoHGywmmNPwIWMqB-26">
          <mxGeometry width="50" height="50" relative="1" as="geometry">
            <mxPoint x="-4296" y="2933" as="sourcePoint" />
            <mxPoint x="-4633" y="2760.9999999999995" as="targetPoint" />
          </mxGeometry>
        </mxCell>
        <mxCell id="tPWhLoHGywmmNPwIWMqB-46" value="" style="endArrow=none;html=1;rounded=0;endSize=16;exitX=0.25;exitY=0.1;exitDx=0;exitDy=0;exitPerimeter=0;entryX=0.5;entryY=1;entryDx=0;entryDy=0;entryPerimeter=0;" edge="1" parent="1" source="tPWhLoHGywmmNPwIWMqB-62" target="tPWhLoHGywmmNPwIWMqB-25">
          <mxGeometry width="50" height="50" relative="1" as="geometry">
            <mxPoint x="-4286" y="2943" as="sourcePoint" />
            <mxPoint x="-4623" y="2770.9999999999995" as="targetPoint" />
          </mxGeometry>
        </mxCell>
        <mxCell id="tPWhLoHGywmmNPwIWMqB-47" value="Acess, but can not modify" style="text;html=1;align=center;verticalAlign=middle;resizable=0;points=[];autosize=1;strokeColor=none;fillColor=none;" vertex="1" parent="1">
          <mxGeometry x="-4510" y="2798" width="148" height="18" as="geometry" />
        </mxCell>
        <mxCell id="tPWhLoHGywmmNPwIWMqB-48" value="" style="endArrow=none;html=1;rounded=0;endSize=16;entryX=0.5;entryY=1;entryDx=0;entryDy=0;entryPerimeter=0;exitX=0.75;exitY=0.1;exitDx=0;exitDy=0;exitPerimeter=0;dashed=1;" edge="1" parent="1" source="tPWhLoHGywmmNPwIWMqB-62" target="tPWhLoHGywmmNPwIWMqB-35">
          <mxGeometry width="50" height="50" relative="1" as="geometry">
            <mxPoint x="-4220" y="2902" as="sourcePoint" />
            <mxPoint x="-4308" y="2750.9999999999995" as="targetPoint" />
          </mxGeometry>
        </mxCell>
        <mxCell id="tPWhLoHGywmmNPwIWMqB-49" value="" style="endArrow=none;html=1;rounded=0;endSize=16;entryX=0.5;entryY=1;entryDx=0;entryDy=0;entryPerimeter=0;exitX=0.75;exitY=0.1;exitDx=0;exitDy=0;exitPerimeter=0;dashed=1;" edge="1" parent="1" source="tPWhLoHGywmmNPwIWMqB-62" target="tPWhLoHGywmmNPwIWMqB-38">
          <mxGeometry width="50" height="50" relative="1" as="geometry">
            <mxPoint x="-4238.5" y="2923" as="sourcePoint" />
            <mxPoint x="-4212.5" y="2750.9999999999995" as="targetPoint" />
          </mxGeometry>
        </mxCell>
        <mxCell id="tPWhLoHGywmmNPwIWMqB-50" value="" style="endArrow=none;html=1;rounded=0;endSize=16;entryX=0.5;entryY=1;entryDx=0;entryDy=0;entryPerimeter=0;exitX=0.75;exitY=0.1;exitDx=0;exitDy=0;exitPerimeter=0;dashed=1;" edge="1" parent="1" source="tPWhLoHGywmmNPwIWMqB-62" target="tPWhLoHGywmmNPwIWMqB-37">
          <mxGeometry width="50" height="50" relative="1" as="geometry">
            <mxPoint x="-4238.5" y="2923" as="sourcePoint" />
            <mxPoint x="-4109.5" y="2750.9999999999995" as="targetPoint" />
          </mxGeometry>
        </mxCell>
        <mxCell id="tPWhLoHGywmmNPwIWMqB-51" value="" style="endArrow=none;html=1;rounded=0;endSize=16;entryX=0.5;entryY=1;entryDx=0;entryDy=0;entryPerimeter=0;exitX=0.75;exitY=0.1;exitDx=0;exitDy=0;exitPerimeter=0;dashed=1;" edge="1" parent="1" source="tPWhLoHGywmmNPwIWMqB-62" target="tPWhLoHGywmmNPwIWMqB-36">
          <mxGeometry width="50" height="50" relative="1" as="geometry">
            <mxPoint x="-4228.5" y="2933" as="sourcePoint" />
            <mxPoint x="-4099.5" y="2760.9999999999995" as="targetPoint" />
          </mxGeometry>
        </mxCell>
        <mxCell id="tPWhLoHGywmmNPwIWMqB-52" value="Cannot access" style="text;html=1;align=center;verticalAlign=middle;resizable=0;points=[];autosize=1;strokeColor=none;fillColor=none;" vertex="1" parent="1">
          <mxGeometry x="-4156" y="2798" width="89" height="18" as="geometry" />
        </mxCell>
        <mxCell id="tPWhLoHGywmmNPwIWMqB-53" value="" style="group" connectable="0" vertex="1" parent="1">
          <mxGeometry x="-4289" y="2935" width="41" height="80" as="geometry" />
        </mxCell>
        <mxCell id="tPWhLoHGywmmNPwIWMqB-54" value="Actor" style="shape=umlActor;verticalLabelPosition=bottom;verticalAlign=top;html=1;outlineConnect=0;fillColor=default;" vertex="1" parent="tPWhLoHGywmmNPwIWMqB-53">
          <mxGeometry x="7" width="30" height="60" as="geometry" />
        </mxCell>
        <mxCell id="tPWhLoHGywmmNPwIWMqB-55" value="Owen" style="text;html=1;align=center;verticalAlign=middle;resizable=0;points=[];autosize=1;strokeColor=none;fillColor=default;" vertex="1" parent="tPWhLoHGywmmNPwIWMqB-53">
          <mxGeometry y="62" width="41" height="18" as="geometry" />
        </mxCell>
        <mxCell id="tPWhLoHGywmmNPwIWMqB-56" value="" style="group" connectable="0" vertex="1" parent="1">
          <mxGeometry x="-4061" y="2383" width="41" height="80" as="geometry" />
        </mxCell>
        <mxCell id="tPWhLoHGywmmNPwIWMqB-57" value="Actor" style="shape=umlActor;verticalLabelPosition=bottom;verticalAlign=top;html=1;outlineConnect=0;fillColor=default;" vertex="1" parent="tPWhLoHGywmmNPwIWMqB-56">
          <mxGeometry x="7" width="30" height="60" as="geometry" />
        </mxCell>
        <mxCell id="tPWhLoHGywmmNPwIWMqB-58" value="Owen" style="text;html=1;align=center;verticalAlign=middle;resizable=0;points=[];autosize=1;strokeColor=none;fillColor=default;" vertex="1" parent="tPWhLoHGywmmNPwIWMqB-56">
          <mxGeometry y="62" width="41" height="18" as="geometry" />
        </mxCell>
        <mxCell id="tPWhLoHGywmmNPwIWMqB-59" value="" style="endArrow=none;html=1;rounded=0;endSize=16;entryX=0;entryY=0.3333333333333333;entryDx=0;entryDy=0;entryPerimeter=0;exitX=1;exitY=0.3333333333333333;exitDx=0;exitDy=0;exitPerimeter=0;dashed=1;dashPattern=1 1;" edge="1" parent="1" source="tPWhLoHGywmmNPwIWMqB-20" target="tPWhLoHGywmmNPwIWMqB-57">
          <mxGeometry width="50" height="50" relative="1" as="geometry">
            <mxPoint x="-4039.5" y="2852" as="sourcePoint" />
            <mxPoint x="-4013.5" y="2679.9999999999995" as="targetPoint" />
          </mxGeometry>
        </mxCell>
        <mxCell id="tPWhLoHGywmmNPwIWMqB-60" value="collaborator" style="text;html=1;align=center;verticalAlign=middle;resizable=0;points=[];autosize=1;strokeColor=none;fillColor=none;" vertex="1" parent="1">
          <mxGeometry x="-4193" y="2380" width="72" height="18" as="geometry" />
        </mxCell>
        <mxCell id="tPWhLoHGywmmNPwIWMqB-61" value="" style="group" connectable="0" vertex="1" parent="1">
          <mxGeometry x="-4286" y="2812" width="43" height="82" as="geometry" />
        </mxCell>
        <mxCell id="tPWhLoHGywmmNPwIWMqB-62" value="Actor" style="shape=umlActor;verticalLabelPosition=bottom;verticalAlign=top;html=1;" vertex="1" parent="tPWhLoHGywmmNPwIWMqB-61">
          <mxGeometry x="6.5" width="30" height="60" as="geometry" />
        </mxCell>
        <mxCell id="tPWhLoHGywmmNPwIWMqB-63" value="Visitor" style="text;html=1;align=center;verticalAlign=middle;resizable=0;points=[];autosize=1;strokeColor=none;fillColor=default;" vertex="1" parent="tPWhLoHGywmmNPwIWMqB-61">
          <mxGeometry y="64" width="43" height="18" as="geometry" />
        </mxCell>
        <mxCell id="tPWhLoHGywmmNPwIWMqB-64" value="" style="endArrow=none;html=1;rounded=0;endSize=16;exitX=0;exitY=0.3333333333333333;exitDx=0;exitDy=0;exitPerimeter=0;entryX=0.5;entryY=1;entryDx=0;entryDy=0;entryPerimeter=0;strokeWidth=2;" edge="1" parent="1" source="tPWhLoHGywmmNPwIWMqB-54" target="tPWhLoHGywmmNPwIWMqB-24">
          <mxGeometry width="50" height="50" relative="1" as="geometry">
            <mxPoint x="-4311" y="2947.0000000000005" as="sourcePoint" />
            <mxPoint x="-4692" y="2870.0000000000005" as="targetPoint" />
          </mxGeometry>
        </mxCell>
        <mxCell id="tPWhLoHGywmmNPwIWMqB-65" value="" style="endArrow=none;html=1;rounded=0;endSize=16;exitX=1;exitY=0.3333333333333333;exitDx=0;exitDy=0;exitPerimeter=0;entryX=0.5;entryY=1;entryDx=0;entryDy=0;entryPerimeter=0;strokeWidth=2;dashed=1;dashPattern=1 2;" edge="1" parent="1" source="tPWhLoHGywmmNPwIWMqB-54" target="tPWhLoHGywmmNPwIWMqB-36">
          <mxGeometry width="50" height="50" relative="1" as="geometry">
            <mxPoint x="-3999" y="2988" as="sourcePoint" />
            <mxPoint x="-4370" y="2774.0000000000005" as="targetPoint" />
          </mxGeometry>
        </mxCell>
        <mxCell id="tPWhLoHGywmmNPwIWMqB-66" value="Can access and modify" style="text;html=1;align=center;verticalAlign=middle;resizable=0;points=[];autosize=1;strokeColor=none;fillColor=none;" vertex="1" parent="1">
          <mxGeometry x="-4551" y="2879" width="135" height="18" as="geometry" />
        </mxCell>
        <mxCell id="tPWhLoHGywmmNPwIWMqB-67" value="Cannot access and modify" style="text;html=1;align=center;verticalAlign=middle;resizable=0;points=[];autosize=1;strokeColor=none;fillColor=none;" vertex="1" parent="1">
          <mxGeometry x="-4120" y="2876" width="151" height="18" as="geometry" />
        </mxCell>
        <mxCell id="tPWhLoHGywmmNPwIWMqB-68" value="" style="endArrow=none;html=1;rounded=0;" edge="1" parent="1" source="tPWhLoHGywmmNPwIWMqB-33">
          <mxGeometry width="50" height="50" relative="1" as="geometry">
            <mxPoint x="-4062" y="2514" as="sourcePoint" />
            <mxPoint x="-4269" y="2468" as="targetPoint" />
            <Array as="points">
              <mxPoint x="-4034" y="2490" />
              <mxPoint x="-4269" y="2490" />
            </Array>
          </mxGeometry>
        </mxCell>
        <mxCell id="tPWhLoHGywmmNPwIWMqB-69" value="" style="endArrow=none;html=1;rounded=0;" edge="1" parent="1">
          <mxGeometry width="50" height="50" relative="1" as="geometry">
            <mxPoint x="-4453" y="2513" as="sourcePoint" />
            <mxPoint x="-4255.5" y="2490" as="targetPoint" />
            <Array as="points">
              <mxPoint x="-4453" y="2490" />
            </Array>
          </mxGeometry>
        </mxCell>
        <mxCell id="tPWhLoHGywmmNPwIWMqB-70" value="" style="endArrow=none;dashed=1;html=1;rounded=0;entryX=0.5;entryY=1;entryDx=0;entryDy=0;entryPerimeter=0;" edge="1" parent="1" target="tPWhLoHGywmmNPwIWMqB-37">
          <mxGeometry width="50" height="50" relative="1" as="geometry">
            <mxPoint x="-4253" y="2942" as="sourcePoint" />
            <mxPoint x="-4343" y="2815" as="targetPoint" />
          </mxGeometry>
        </mxCell>
        <mxCell id="tPWhLoHGywmmNPwIWMqB-71" value="" style="endArrow=none;dashed=1;html=1;rounded=0;entryX=0.5;entryY=1;entryDx=0;entryDy=0;entryPerimeter=0;" edge="1" parent="1" target="tPWhLoHGywmmNPwIWMqB-38">
          <mxGeometry width="50" height="50" relative="1" as="geometry">
            <mxPoint x="-4261" y="2935" as="sourcePoint" />
            <mxPoint x="-4006.5" y="2734" as="targetPoint" />
          </mxGeometry>
        </mxCell>
        <mxCell id="tPWhLoHGywmmNPwIWMqB-72" value="" style="endArrow=none;dashed=1;html=1;rounded=0;entryX=0.5;entryY=1;entryDx=0;entryDy=0;entryPerimeter=0;exitX=0.5;exitY=0;exitDx=0;exitDy=0;exitPerimeter=0;" edge="1" parent="1" source="tPWhLoHGywmmNPwIWMqB-54" target="tPWhLoHGywmmNPwIWMqB-35">
          <mxGeometry width="50" height="50" relative="1" as="geometry">
            <mxPoint x="-4233" y="2962" as="sourcePoint" />
            <mxPoint x="-3978.5" y="2761" as="targetPoint" />
          </mxGeometry>
        </mxCell>
        <mxCell id="tPWhLoHGywmmNPwIWMqB-73" value="" style="endArrow=none;html=1;rounded=0;endSize=16;entryX=0.5;entryY=1;entryDx=0;entryDy=0;entryPerimeter=0;" edge="1" parent="1" target="tPWhLoHGywmmNPwIWMqB-27">
          <mxGeometry width="50" height="50" relative="1" as="geometry">
            <mxPoint x="-4282" y="2943" as="sourcePoint" />
            <mxPoint x="-4643" y="2751" as="targetPoint" />
          </mxGeometry>
        </mxCell>
        <mxCell id="tPWhLoHGywmmNPwIWMqB-74" value="" style="endArrow=none;html=1;rounded=0;endSize=16;exitX=0.25;exitY=0.1;exitDx=0;exitDy=0;exitPerimeter=0;entryX=0.5;entryY=1;entryDx=0;entryDy=0;entryPerimeter=0;" edge="1" parent="1" source="tPWhLoHGywmmNPwIWMqB-54" target="tPWhLoHGywmmNPwIWMqB-26">
          <mxGeometry width="50" height="50" relative="1" as="geometry">
            <mxPoint x="-4252" y="2838" as="sourcePoint" />
            <mxPoint x="-4633" y="2761" as="targetPoint" />
          </mxGeometry>
        </mxCell>
        <mxCell id="tPWhLoHGywmmNPwIWMqB-75" value="" style="endArrow=none;html=1;rounded=0;endSize=16;exitX=0.5;exitY=0;exitDx=0;exitDy=0;exitPerimeter=0;entryX=0.5;entryY=1;entryDx=0;entryDy=0;entryPerimeter=0;" edge="1" parent="1" source="tPWhLoHGywmmNPwIWMqB-54" target="tPWhLoHGywmmNPwIWMqB-25">
          <mxGeometry width="50" height="50" relative="1" as="geometry">
            <mxPoint x="-4242" y="2848" as="sourcePoint" />
            <mxPoint x="-4623" y="2771" as="targetPoint" />
          </mxGeometry>
        </mxCell>
        <mxCell id="tPWhLoHGywmmNPwIWMqB-76" value="&lt;p style=&quot;margin: 0px ; margin-top: 4px ; text-align: center&quot;&gt;&lt;b&gt;User&lt;/b&gt;&lt;/p&gt;&lt;hr size=&quot;1&quot;&gt;&lt;p style=&quot;margin: 0px ; margin-left: 4px&quot;&gt;+ user_id&lt;/p&gt;&lt;p style=&quot;margin: 0px ; margin-left: 4px&quot;&gt;+ username&lt;/p&gt;&lt;p style=&quot;margin: 0px ; margin-left: 4px&quot;&gt;+ user_email&lt;/p&gt;&lt;p style=&quot;margin: 0px ; margin-left: 4px&quot;&gt;+ password&lt;/p&gt;&lt;p style=&quot;margin: 0px ; margin-left: 4px&quot;&gt;+ user_profile&lt;/p&gt;&lt;p style=&quot;margin: 0px ; margin-left: 4px&quot;&gt;+ login_status&lt;/p&gt;&lt;hr size=&quot;1&quot;&gt;&lt;p style=&quot;margin: 0px ; margin-left: 4px&quot;&gt;+ verify_login()&lt;/p&gt;&lt;p style=&quot;margin: 0px ; margin-left: 4px&quot;&gt;+ create_project()&lt;/p&gt;&lt;p style=&quot;margin: 0px ; margin-left: 4px&quot;&gt;+ create_document()&lt;/p&gt;&lt;p style=&quot;margin: 0px ; margin-left: 4px&quot;&gt;+ modify_document()&lt;/p&gt;&lt;p style=&quot;margin: 0px ; margin-left: 4px&quot;&gt;+ upload()&lt;/p&gt;&lt;p style=&quot;margin: 0px ; margin-left: 4px&quot;&gt;+ download()&lt;/p&gt;&lt;p style=&quot;margin: 0px ; margin-left: 4px&quot;&gt;+ share()&lt;/p&gt;&lt;p style=&quot;margin: 0px ; margin-left: 4px&quot;&gt;&lt;br&gt;&lt;/p&gt;" style="verticalAlign=top;align=left;overflow=fill;fontSize=12;fontFamily=Helvetica;html=1;rounded=0;gradientColor=none;" vertex="1" parent="1">
          <mxGeometry x="-3211" y="2531" width="152.5" height="234" as="geometry" />
        </mxCell>
        <mxCell id="snLkROtN8yR4piSJNLJ5-6" value="update()" style="edgeStyle=orthogonalEdgeStyle;html=1;align=left;spacingLeft=2;endArrow=none;rounded=0;entryX=1;entryY=0;fontSize=15;endSize=10;startArrow=openThin;startFill=0;endFill=0;" edge="1" parent="1">
          <mxGeometry relative="1" as="geometry">
            <mxPoint x="-3990" y="-2031" as="sourcePoint" />
            <Array as="points">
              <mxPoint x="-3960" y="-2031" />
            </Array>
            <mxPoint x="-3989" y="-2078" as="targetPoint" />
          </mxGeometry>
        </mxCell>
        <mxCell id="tPWhLoHGywmmNPwIWMqB-77" style="edgeStyle=orthogonalEdgeStyle;rounded=0;orthogonalLoop=1;jettySize=auto;html=1;exitX=0;exitY=0.25;exitDx=0;exitDy=0;entryX=0.993;entryY=0.903;entryDx=0;entryDy=0;entryPerimeter=0;shadow=0;endArrow=diamond;endFill=1;strokeWidth=1;" edge="1" parent="1" source="tPWhLoHGywmmNPwIWMqB-78" target="tPWhLoHGywmmNPwIWMqB-76">
          <mxGeometry relative="1" as="geometry" />
        </mxCell>
        <mxCell id="tPWhLoHGywmmNPwIWMqB-78" value="&lt;p style=&quot;margin: 0px ; margin-top: 4px ; text-align: center&quot;&gt;&lt;b&gt;Register&lt;/b&gt;&lt;/p&gt;&lt;hr size=&quot;1&quot;&gt;&lt;p style=&quot;margin: 0px ; margin-left: 4px&quot;&gt;+ email&lt;/p&gt;&lt;p style=&quot;margin: 0px ; margin-left: 4px&quot;&gt;+ username&lt;/p&gt;&lt;p style=&quot;margin: 0px ; margin-left: 4px&quot;&gt;- password&lt;/p&gt;&lt;p style=&quot;margin: 0px ; margin-left: 4px&quot;&gt;+ verification_code&lt;/p&gt;&lt;p style=&quot;margin: 0px ; margin-left: 4px&quot;&gt;+ register_date&lt;/p&gt;&lt;hr size=&quot;1&quot;&gt;&lt;p style=&quot;margin: 0px ; margin-left: 4px&quot;&gt;+ registerUser()&lt;/p&gt;&lt;p style=&quot;margin: 0px ; margin-left: 4px&quot;&gt;+ check_code()&lt;/p&gt;&lt;p style=&quot;margin: 0px ; margin-left: 4px&quot;&gt;&lt;br&gt;&lt;/p&gt;" style="verticalAlign=top;align=left;overflow=fill;fontSize=12;fontFamily=Helvetica;html=1;rounded=0;gradientColor=none;" vertex="1" parent="1">
          <mxGeometry x="-2989" y="2706" width="152.5" height="148" as="geometry" />
        </mxCell>
        <mxCell id="tPWhLoHGywmmNPwIWMqB-79" style="edgeStyle=orthogonalEdgeStyle;rounded=0;orthogonalLoop=1;jettySize=auto;html=1;exitX=1;exitY=0.5;exitDx=0;exitDy=0;entryX=1;entryY=0.25;entryDx=0;entryDy=0;shadow=0;endArrow=block;endFill=0;strokeWidth=1;" edge="1" parent="1" source="tPWhLoHGywmmNPwIWMqB-81" target="tPWhLoHGywmmNPwIWMqB-76">
          <mxGeometry relative="1" as="geometry">
            <Array as="points">
              <mxPoint x="-3022.5" y="2431" />
              <mxPoint x="-3022.5" y="2587" />
            </Array>
          </mxGeometry>
        </mxCell>
        <mxCell id="tPWhLoHGywmmNPwIWMqB-80" value="Manages" style="edgeLabel;html=1;align=center;verticalAlign=middle;resizable=0;points=[];" vertex="1" connectable="0" parent="tPWhLoHGywmmNPwIWMqB-79">
          <mxGeometry x="-0.1073" y="3" relative="1" as="geometry">
            <mxPoint x="-8" y="8" as="offset" />
          </mxGeometry>
        </mxCell>
        <mxCell id="tPWhLoHGywmmNPwIWMqB-81" value="&lt;p style=&quot;margin: 0px ; margin-top: 4px ; text-align: center&quot;&gt;&lt;b&gt;Admin&lt;/b&gt;&lt;/p&gt;&lt;hr size=&quot;1&quot;&gt;&lt;p style=&quot;margin: 0px ; margin-left: 4px&quot;&gt;+ adminName&lt;/p&gt;&lt;hr size=&quot;1&quot;&gt;&lt;p style=&quot;margin: 0px ; margin-left: 4px&quot;&gt;+ editUser()&lt;/p&gt;&lt;p style=&quot;margin: 0px ; margin-left: 4px&quot;&gt;+ deleteUser()&lt;/p&gt;&lt;p style=&quot;margin: 0px ; margin-left: 4px&quot;&gt;+ viewUser()&lt;/p&gt;" style="verticalAlign=top;align=left;overflow=fill;fontSize=12;fontFamily=Helvetica;html=1;rounded=0;gradientColor=none;" vertex="1" parent="1">
          <mxGeometry x="-3211" y="2402" width="152.5" height="110" as="geometry" />
        </mxCell>
        <mxCell id="tPWhLoHGywmmNPwIWMqB-82" style="edgeStyle=orthogonalEdgeStyle;rounded=0;orthogonalLoop=1;jettySize=auto;html=1;exitX=0;exitY=0.5;exitDx=0;exitDy=0;shadow=0;endArrow=diamond;endFill=1;strokeWidth=1;startArrow=none;" edge="1" parent="1" source="tPWhLoHGywmmNPwIWMqB-84">
          <mxGeometry relative="1" as="geometry">
            <mxPoint x="-3055.7941284179688" y="2606.4705882352937" as="targetPoint" />
          </mxGeometry>
        </mxCell>
        <mxCell id="tPWhLoHGywmmNPwIWMqB-83" value="&lt;p style=&quot;margin: 0px ; margin-top: 4px ; text-align: center&quot;&gt;&lt;b&gt;User_activity&lt;/b&gt;&lt;/p&gt;&lt;hr size=&quot;1&quot;&gt;&lt;p style=&quot;margin: 0px ; margin-left: 4px&quot;&gt;+ last_login&lt;/p&gt;&lt;p style=&quot;margin: 0px ; margin-left: 4px&quot;&gt;+ login_time&lt;/p&gt;&lt;p style=&quot;margin: 0px ; margin-left: 4px&quot;&gt;+ if_modify&lt;/p&gt;&lt;p style=&quot;margin: 0px ; margin-left: 4px&quot;&gt;+ count_modify&lt;/p&gt;&lt;hr size=&quot;1&quot;&gt;&lt;p style=&quot;margin: 0px ; margin-left: 4px&quot;&gt;+ get_last_login()&lt;/p&gt;&lt;p style=&quot;margin: 0px ; margin-left: 4px&quot;&gt;+ get_login_time()&lt;/p&gt;&lt;p style=&quot;margin: 0px ; margin-left: 4px&quot;&gt;+ get_modified()&lt;/p&gt;" style="verticalAlign=top;align=left;overflow=fill;fontSize=12;fontFamily=Helvetica;html=1;rounded=0;gradientColor=none;" vertex="1" parent="1">
          <mxGeometry x="-2992.5" y="2531" width="152.5" height="151" as="geometry" />
        </mxCell>
        <mxCell id="tPWhLoHGywmmNPwIWMqB-84" value="has" style="text;html=1;align=center;verticalAlign=middle;resizable=0;points=[];autosize=1;strokeColor=none;fillColor=none;" vertex="1" parent="1">
          <mxGeometry x="-3035.5" y="2600" width="29" height="18" as="geometry" />
        </mxCell>
        <mxCell id="tPWhLoHGywmmNPwIWMqB-85" value="" style="edgeStyle=orthogonalEdgeStyle;rounded=0;orthogonalLoop=1;jettySize=auto;html=1;exitX=0;exitY=0.5;exitDx=0;exitDy=0;shadow=0;endArrow=none;endFill=1;strokeWidth=1;" edge="1" parent="1" source="tPWhLoHGywmmNPwIWMqB-83" target="tPWhLoHGywmmNPwIWMqB-84">
          <mxGeometry relative="1" as="geometry">
            <mxPoint x="-3055.7941284179688" y="2606.470588235294" as="targetPoint" />
            <mxPoint x="-2992.5" y="2606.5" as="sourcePoint" />
          </mxGeometry>
        </mxCell>
        <mxCell id="tPWhLoHGywmmNPwIWMqB-86" value="has" style="text;html=1;align=center;verticalAlign=middle;resizable=0;points=[];autosize=1;strokeColor=none;fillColor=none;" vertex="1" parent="1">
          <mxGeometry x="-3037.5" y="2737" width="29" height="18" as="geometry" />
        </mxCell>
        <mxCell id="tPWhLoHGywmmNPwIWMqB-87" value="" style="endArrow=diamondThin;endFill=1;endSize=24;html=1;rounded=0;entryX=0.5;entryY=1;entryDx=0;entryDy=0;" edge="1" parent="1" target="tPWhLoHGywmmNPwIWMqB-76">
          <mxGeometry width="160" relative="1" as="geometry">
            <mxPoint x="-3135" y="2841" as="sourcePoint" />
            <mxPoint x="-3125" y="2799" as="targetPoint" />
          </mxGeometry>
        </mxCell>
        <mxCell id="tPWhLoHGywmmNPwIWMqB-88" value="&lt;p style=&quot;margin: 0px ; margin-top: 4px ; text-align: center&quot;&gt;&lt;b&gt;Login&lt;/b&gt;&lt;/p&gt;&lt;hr size=&quot;1&quot;&gt;&lt;p style=&quot;margin: 0px ; margin-left: 4px&quot;&gt;+ username&lt;/p&gt;&lt;p style=&quot;margin: 0px ; margin-left: 4px&quot;&gt;- password&lt;/p&gt;&lt;p style=&quot;margin: 0px ; margin-left: 4px&quot;&gt;+ login_time&lt;br&gt;&lt;/p&gt;&lt;hr size=&quot;1&quot;&gt;&lt;p style=&quot;margin: 0px ; margin-left: 4px&quot;&gt;+ login_user()&lt;/p&gt;" style="verticalAlign=top;align=left;overflow=fill;fontSize=12;fontFamily=Helvetica;html=1;rounded=0;gradientColor=none;" vertex="1" parent="1">
          <mxGeometry x="-3207" y="2840" width="152.5" height="107" as="geometry" />
        </mxCell>
        <mxCell id="tPWhLoHGywmmNPwIWMqB-89" value="has" style="text;html=1;align=center;verticalAlign=middle;resizable=0;points=[];autosize=1;strokeColor=none;fillColor=none;" vertex="1" parent="1">
          <mxGeometry x="-3149.25" y="2799" width="29" height="18" as="geometry" />
        </mxCell>
        <mxCell id="tPWhLoHGywmmNPwIWMqB-90" style="edgeStyle=orthogonalEdgeStyle;rounded=0;orthogonalLoop=1;jettySize=auto;html=1;exitX=0;exitY=0.25;exitDx=0;exitDy=0;entryX=0.993;entryY=0.903;entryDx=0;entryDy=0;entryPerimeter=0;shadow=0;endArrow=diamond;endFill=1;strokeWidth=1;" edge="1" parent="1" source="tPWhLoHGywmmNPwIWMqB-91">
          <mxGeometry relative="1" as="geometry">
            <mxPoint x="-2839.9975000000004" y="2748.3019999999997" as="targetPoint" />
          </mxGeometry>
        </mxCell>
        <mxCell id="tPWhLoHGywmmNPwIWMqB-91" value="&lt;p style=&quot;margin: 0px ; margin-top: 4px ; text-align: center&quot;&gt;&lt;b&gt;Confirmation_sender&lt;/b&gt;&lt;/p&gt;&lt;hr size=&quot;1&quot;&gt;&lt;p style=&quot;margin: 0px ; margin-left: 4px&quot;&gt;+ registered_email&lt;/p&gt;&lt;p style=&quot;margin: 0px ; margin-left: 4px&quot;&gt;+ confirmation_message&lt;/p&gt;&lt;p style=&quot;margin: 0px ; margin-left: 4px&quot;&gt;+ confirm_date&lt;/p&gt;&lt;hr size=&quot;1&quot;&gt;&lt;p style=&quot;margin: 0px ; margin-left: 4px&quot;&gt;+ send_confirm_email()&lt;/p&gt;" style="verticalAlign=top;align=left;overflow=fill;fontSize=12;fontFamily=Helvetica;html=1;rounded=0;gradientColor=none;" vertex="1" parent="1">
          <mxGeometry x="-2770" y="2722" width="152.5" height="109" as="geometry" />
        </mxCell>
        <mxCell id="tPWhLoHGywmmNPwIWMqB-92" value="has" style="text;html=1;align=center;verticalAlign=middle;resizable=0;points=[];autosize=1;strokeColor=none;fillColor=none;" vertex="1" parent="1">
          <mxGeometry x="-2817.9300000000003" y="2743" width="29" height="18" as="geometry" />
        </mxCell>
      </root>
    </mxGraphModel>
  </diagram>
</mxfile>
